
<svg width="836px" height="252px" viewBox="0 0 836 252" version="1.1" xmlns="http://www.w3.org/2000/svg" xmlns:xlink="http://www.w3.org/1999/xlink">
    <defs>
        <linearGradient x1="50.6837547%" y1="13.4226722%" x2="49.6366413%" y2="63.7220568%" id="linearGradient-1">
            <stop stop-color="#4FB868" offset="0%"></stop>
            <stop stop-color="#D9E25D" offset="100%"></stop>
        </linearGradient>
        <linearGradient x1="86.2547764%" y1="44.2258947%" x2="-7.80393951%" y2="61.4909112%" id="linearGradient-2">
            <stop stop-color="#4FB868" offset="0%"></stop>
            <stop stop-color="#D9E25D" offset="100%"></stop>
        </linearGradient>
        <linearGradient x1="44.7305213%" y1="24.757472%" x2="56.3833061%" y2="75.4443899%" id="linearGradient-3">
            <stop stop-color="#4FB868" offset="0%"></stop>
            <stop stop-color="#D9E25D" offset="100%"></stop>
        </linearGradient>
        <linearGradient x1="46.7872933%" y1="13.3401439%" x2="51.7241225%" y2="64.2212149%" id="linearGradient-4">
            <stop stop-color="#4FB868" offset="0%"></stop>
            <stop stop-color="#D9E25D" offset="100%"></stop>
        </linearGradient>
        <linearGradient x1="80.752741%" y1="26.6342117%" x2="-9.18096781%" y2="86.9243012%" id="linearGradient-5">
            <stop stop-color="#4FB868" offset="0%"></stop>
            <stop stop-color="#D9E25D" offset="100%"></stop>
        </linearGradient>
        <linearGradient x1="36.4524101%" y1="27.4268823%" x2="68.5713416%" y2="72.5401971%" id="linearGradient-6">
            <stop stop-color="#4FB868" offset="0%"></stop>
            <stop stop-color="#D9E25D" offset="100%"></stop>
        </linearGradient>
        <linearGradient x1="18.8924757%" y1="37.569174%" x2="80.9960816%" y2="58.2099889%" id="linearGradient-7">
            <stop stop-color="#00C0F2" offset="0%"></stop>
            <stop stop-color="#A8E0F9" offset="100%"></stop>
        </linearGradient>
        <linearGradient x1="2.8373394%" y1="10.6683385%" x2="103.038647%" y2="80.4221062%" id="linearGradient-8">
            <stop stop-color="#00C0F2" offset="0%"></stop>
            <stop stop-color="#A8E0F9" offset="100%"></stop>
        </linearGradient>
        <linearGradient x1="44.7261767%" y1="18.2319996%" x2="53.4648255%" y2="76.845092%" id="linearGradient-9">
            <stop stop-color="#FFF347" offset="0%"></stop>
            <stop stop-color="#FEE33A" offset="31.48%"></stop>
            <stop stop-color="#FBBB19" offset="92.47%"></stop>
            <stop stop-color="#FBB514" offset="100%"></stop>
        </linearGradient>
        <linearGradient x1="85.5540752%" y1="53.2325353%" x2="-0.66907827%" y2="46.120978%" id="linearGradient-10">
            <stop stop-color="#CA962C" offset="0%"></stop>
            <stop stop-color="#EDB037" offset="62.91%"></stop>
            <stop stop-color="#FDBB3C" offset="100%"></stop>
        </linearGradient>
        <linearGradient x1="41.2755191%" y1="15.2881184%" x2="70.6871703%" y2="96.047633%" id="linearGradient-11">
            <stop stop-color="#FFF347" offset="0%"></stop>
            <stop stop-color="#FEE33A" offset="31.48%"></stop>
            <stop stop-color="#FBBB19" offset="92.47%"></stop>
            <stop stop-color="#FBB514" offset="100%"></stop>
        </linearGradient>
        <linearGradient x1="81.5426293%" y1="52.8732465%" x2="-3.34423726%" y2="45.5680738%" id="linearGradient-12">
            <stop stop-color="#CA962C" offset="0%"></stop>
            <stop stop-color="#EDB037" offset="62.91%"></stop>
            <stop stop-color="#FDBB3C" offset="100%"></stop>
        </linearGradient>
        <linearGradient x1="44.0293427%" y1="13.7922085%" x2="60.2482454%" y2="88.2359975%" id="linearGradient-13">
            <stop stop-color="#FFF347" offset="0%"></stop>
            <stop stop-color="#FEE33A" offset="31.48%"></stop>
            <stop stop-color="#FBBB19" offset="92.47%"></stop>
            <stop stop-color="#FBB514" offset="100%"></stop>
        </linearGradient>
        <linearGradient x1="44.2187191%" y1="18.2373729%" x2="53.8039041%" y2="76.848461%" id="linearGradient-14">
            <stop stop-color="#FFF347" offset="0%"></stop>
            <stop stop-color="#FEE33A" offset="31.48%"></stop>
            <stop stop-color="#FBBB19" offset="92.47%"></stop>
            <stop stop-color="#FBB514" offset="100%"></stop>
        </linearGradient>
        <linearGradient x1="85.5574167%" y1="52.9462669%" x2="-0.67025769%" y2="46.4654867%" id="linearGradient-15">
            <stop stop-color="#CA962C" offset="0%"></stop>
            <stop stop-color="#EDB037" offset="62.91%"></stop>
            <stop stop-color="#FDBB3C" offset="100%"></stop>
        </linearGradient>
        <linearGradient x1="40.4332182%" y1="15.2861135%" x2="72.6972309%" y2="96.040738%" id="linearGradient-16">
            <stop stop-color="#FFF347" offset="0%"></stop>
            <stop stop-color="#FEE33A" offset="31.48%"></stop>
            <stop stop-color="#FBBB19" offset="92.47%"></stop>
            <stop stop-color="#FBB514" offset="100%"></stop>
        </linearGradient>
        <linearGradient x1="81.5432516%" y1="52.6203272%" x2="-3.34311473%" y2="45.9612741%" id="linearGradient-17">
            <stop stop-color="#CA962C" offset="0%"></stop>
            <stop stop-color="#EDB037" offset="62.91%"></stop>
            <stop stop-color="#FDBB3C" offset="100%"></stop>
        </linearGradient>
        <linearGradient x1="43.4518866%" y1="13.7989254%" x2="61.2423639%" y2="88.2370692%" id="linearGradient-18">
            <stop stop-color="#FFF347" offset="0%"></stop>
            <stop stop-color="#FEE33A" offset="31.48%"></stop>
            <stop stop-color="#FBBB19" offset="92.47%"></stop>
            <stop stop-color="#FBB514" offset="100%"></stop>
        </linearGradient>
        <linearGradient x1="88.010645%" y1="54.3066673%" x2="17.2961211%" y2="45.8549493%" id="linearGradient-19">
            <stop stop-color="#FFF347" offset="0%"></stop>
            <stop stop-color="#FEE33A" offset="31.48%"></stop>
            <stop stop-color="#FBBB19" offset="92.47%"></stop>
            <stop stop-color="#FBB514" offset="100%"></stop>
        </linearGradient>
        <linearGradient x1="25.2579115%" y1="80.1793397%" x2="82.0132824%" y2="4.57618669%" id="linearGradient-20">
            <stop stop-color="#CA962C" offset="0%"></stop>
            <stop stop-color="#EDB037" offset="62.91%"></stop>
            <stop stop-color="#FDBB3C" offset="100%"></stop>
        </linearGradient>
        <linearGradient x1="85.0665836%" y1="51.310279%" x2="-6.57845348%" y2="48.6559875%" id="linearGradient-21">
            <stop stop-color="#FFF347" offset="0%"></stop>
            <stop stop-color="#FEE33A" offset="31.48%"></stop>
            <stop stop-color="#FBBB19" offset="92.47%"></stop>
            <stop stop-color="#FBB514" offset="100%"></stop>
        </linearGradient>
        <linearGradient x1="27.3117935%" y1="74.9038463%" x2="82.7418719%" y2="1.7449066%" id="linearGradient-22">
            <stop stop-color="#CA962C" offset="0%"></stop>
            <stop stop-color="#EDB037" offset="62.91%"></stop>
            <stop stop-color="#FDBB3C" offset="100%"></stop>
        </linearGradient>
        <linearGradient x1="88.5512366%" y1="55.8047363%" x2="1.77074768%" y2="47.7576121%" id="linearGradient-23">
            <stop stop-color="#FFF347" offset="0%"></stop>
            <stop stop-color="#FEE33A" offset="31.48%"></stop>
            <stop stop-color="#FBBB19" offset="92.47%"></stop>
            <stop stop-color="#FBB514" offset="100%"></stop>
        </linearGradient>
        <linearGradient x1="64.8284689%" y1="13.4792699%" x2="19.6439626%" y2="83.6126989%" id="linearGradient-24">
            <stop stop-color="#CD185D" offset="0%"></stop>
            <stop stop-color="#FF4879" offset="42.95%"></stop>
            <stop stop-color="#C51159" offset="96%"></stop>
        </linearGradient>
        <linearGradient x1="49.637808%" y1="29.8749262%" x2="50.3470104%" y2="78.7254012%" id="linearGradient-25">
            <stop stop-color="#FF4879" offset="0%"></stop>
            <stop stop-color="#C51159" offset="96%"></stop>
        </linearGradient>
        <linearGradient x1="-0.00519634771%" y1="49.9972936%" x2="99.9948037%" y2="49.9972936%" id="linearGradient-26">
            <stop stop-color="#F28021" offset="0%"></stop>
            <stop stop-color="#E95725" offset="50.54%"></stop>
            <stop stop-color="#F16D22" offset="100%"></stop>
        </linearGradient>
        <linearGradient x1="0.00178651184%" y1="50%" x2="100.000893%" y2="50%" id="linearGradient-27">
            <stop stop-color="#F28021" offset="0%"></stop>
            <stop stop-color="#E95725" offset="50.54%"></stop>
            <stop stop-color="#F16D22" offset="100%"></stop>
        </linearGradient>
        <linearGradient x1="43.577176%" y1="0.799288627%" x2="55.1428219%" y2="92.9706917%" id="linearGradient-28">
            <stop stop-color="#F28021" offset="0%"></stop>
            <stop stop-color="#E95725" offset="50.54%"></stop>
            <stop stop-color="#F16D22" offset="100%"></stop>
        </linearGradient>
        <linearGradient x1="0.00405844156%" y1="50.0006826%" x2="100.002435%" y2="50.0006826%" id="linearGradient-29">
            <stop stop-color="#D4D258" offset="0%"></stop>
            <stop stop-color="#9DDCF9" offset="0%"></stop>
            <stop stop-color="#00C0F2" offset="45.37%"></stop>
            <stop stop-color="#A8E0F9" offset="100%"></stop>
        </linearGradient>
        <linearGradient x1="0.00166847418%" y1="49.9971623%" x2="100%" y2="49.9971623%" id="linearGradient-30">
            <stop stop-color="#F28021" offset="0%"></stop>
            <stop stop-color="#E95725" offset="50.54%"></stop>
            <stop stop-color="#F16D22" offset="100%"></stop>
        </linearGradient>
        <linearGradient x1="25.0837603%" y1="60.0287024%" x2="65.4727856%" y2="35.8611743%" id="linearGradient-31">
            <stop stop-color="#FFF347" offset="0%"></stop>
            <stop stop-color="#FEE33A" offset="31.48%"></stop>
            <stop stop-color="#FBBB19" offset="92.47%"></stop>
            <stop stop-color="#FBB514" offset="100%"></stop>
        </linearGradient>
        <linearGradient x1="0.00417057658%" y1="50.0009459%" x2="100.005213%" y2="50.0009459%" id="linearGradient-32">
            <stop stop-color="#F28021" offset="0%"></stop>
            <stop stop-color="#E95725" offset="50.54%"></stop>
            <stop stop-color="#F16D22" offset="100%"></stop>
        </linearGradient>
        <linearGradient x1="0.00434555884%" y1="50.0007308%" x2="100.003476%" y2="50.0007308%" id="linearGradient-33">
            <stop stop-color="#F28021" offset="0%"></stop>
            <stop stop-color="#E95725" offset="50.54%"></stop>
            <stop stop-color="#F16D22" offset="100%"></stop>
        </linearGradient>
        <linearGradient x1="-0.00302877335%" y1="50.0007555%" x2="100.004038%" y2="50.0007555%" id="linearGradient-34">
            <stop stop-color="#D4D258" offset="0%"></stop>
            <stop stop-color="#9DDCF9" offset="0%"></stop>
            <stop stop-color="#00C0F2" offset="45.37%"></stop>
            <stop stop-color="#A8E0F9" offset="100%"></stop>
        </linearGradient>
        <linearGradient x1="0.000433369447%" y1="49.9996757%" x2="100%" y2="49.9996757%" id="linearGradient-35">
            <stop stop-color="#D4D258" offset="0%"></stop>
            <stop stop-color="#9DDCF9" offset="0%"></stop>
            <stop stop-color="#00C0F2" offset="45.37%"></stop>
            <stop stop-color="#A8E0F9" offset="100%"></stop>
        </linearGradient>
        <linearGradient x1="-0.0020189784%" y1="49.9992445%" x2="99.995962%" y2="49.9992445%" id="linearGradient-36">
            <stop stop-color="#D4D258" offset="0%"></stop>
            <stop stop-color="#9DDCF9" offset="0%"></stop>
            <stop stop-color="#00C0F2" offset="45.37%"></stop>
            <stop stop-color="#A8E0F9" offset="100%"></stop>
        </linearGradient>
        <linearGradient x1="0.00403795679%" y1="50%" x2="100.001009%" y2="50%" id="linearGradient-37">
            <stop stop-color="#D4D258" offset="0%"></stop>
            <stop stop-color="#9DDCF9" offset="0%"></stop>
            <stop stop-color="#00C0F2" offset="45.37%"></stop>
            <stop stop-color="#A8E0F9" offset="100%"></stop>
        </linearGradient>
        <linearGradient x1="0.0010094892%" y1="49.9992445%" x2="99.9989905%" y2="49.9992445%" id="linearGradient-38">
            <stop stop-color="#D4D258" offset="0%"></stop>
            <stop stop-color="#9DDCF9" offset="0%"></stop>
            <stop stop-color="#00C0F2" offset="45.37%"></stop>
            <stop stop-color="#A8E0F9" offset="100%"></stop>
        </linearGradient>
        <linearGradient x1="-0.00250271127%" y1="50.0009459%" x2="99.9958288%" y2="50.0009459%" id="linearGradient-39">
            <stop stop-color="#F28021" offset="0%"></stop>
            <stop stop-color="#E95725" offset="50.54%"></stop>
            <stop stop-color="#F16D22" offset="100%"></stop>
        </linearGradient>
        <linearGradient x1="38.9845197%" y1="13.3089001%" x2="57.4595507%" y2="79.3546222%" id="linearGradient-40">
            <stop stop-color="#D4D258" offset="0%"></stop>
            <stop stop-color="#C1D95B" offset="0%"></stop>
            <stop stop-color="#4FB868" offset="45.37%"></stop>
            <stop stop-color="#D9E25D" offset="100%"></stop>
        </linearGradient>
        <linearGradient x1="38.9823638%" y1="13.3090934%" x2="57.4573947%" y2="79.3548155%" id="linearGradient-41">
            <stop stop-color="#D4D258" offset="0%"></stop>
            <stop stop-color="#C1D95B" offset="0%"></stop>
            <stop stop-color="#4FB868" offset="45.37%"></stop>
            <stop stop-color="#D9E25D" offset="100%"></stop>
        </linearGradient>
        <linearGradient x1="38.9847103%" y1="13.3121579%" x2="57.4597413%" y2="79.35788%" id="linearGradient-42">
            <stop stop-color="#D4D258" offset="0%"></stop>
            <stop stop-color="#C1D95B" offset="0%"></stop>
            <stop stop-color="#4FB868" offset="45.37%"></stop>
            <stop stop-color="#D9E25D" offset="100%"></stop>
        </linearGradient>
        <linearGradient x1="40.2072112%" y1="13.3086117%" x2="56.6315961%" y2="79.3526696%" id="linearGradient-43">
            <stop stop-color="#D4D258" offset="0%"></stop>
            <stop stop-color="#9DDCF9" offset="0%"></stop>
            <stop stop-color="#00C0F2" offset="45.37%"></stop>
            <stop stop-color="#A8E0F9" offset="100%"></stop>
        </linearGradient>
        <linearGradient x1="44.0760396%" y1="13.3077411%" x2="54.0107477%" y2="79.3564154%" id="linearGradient-44">
            <stop stop-color="#D4D258" offset="0%"></stop>
            <stop stop-color="#C1D95B" offset="0%"></stop>
            <stop stop-color="#4FB868" offset="45.37%"></stop>
            <stop stop-color="#D9E25D" offset="100%"></stop>
        </linearGradient>
        <linearGradient x1="44.0772332%" y1="13.3021393%" x2="54.0119413%" y2="79.3508136%" id="linearGradient-45">
            <stop stop-color="#D4D258" offset="0%"></stop>
            <stop stop-color="#9DDCF9" offset="0%"></stop>
            <stop stop-color="#00C0F2" offset="45.37%"></stop>
            <stop stop-color="#A8E0F9" offset="100%"></stop>
        </linearGradient>
        <linearGradient x1="63.6133604%" y1="23.2265838%" x2="39.1032543%" y2="81.9148184%" id="linearGradient-46">
            <stop stop-color="#D4D258" offset="0%"></stop>
            <stop stop-color="#9DDCF9" offset="0%"></stop>
            <stop stop-color="#00C0F2" offset="45.37%"></stop>
            <stop stop-color="#A8E0F9" offset="100%"></stop>
        </linearGradient>
        <linearGradient x1="40.2077857%" y1="13.3093696%" x2="56.6321707%" y2="79.3534276%" id="linearGradient-47">
            <stop stop-color="#D4D258" offset="0%"></stop>
            <stop stop-color="#C1D95B" offset="0%"></stop>
            <stop stop-color="#4FB868" offset="45.37%"></stop>
            <stop stop-color="#D9E25D" offset="100%"></stop>
        </linearGradient>
        <linearGradient x1="0.00162337662%" y1="49.9993175%" x2="100%" y2="49.9993175%" id="linearGradient-48">
            <stop stop-color="#D4D258" offset="0%"></stop>
            <stop stop-color="#9DDCF9" offset="0%"></stop>
            <stop stop-color="#00C0F2" offset="45.37%"></stop>
            <stop stop-color="#A8E0F9" offset="100%"></stop>
        </linearGradient>
        <linearGradient x1="40.206515%" y1="13.3141312%" x2="56.6309%" y2="79.3581891%" id="linearGradient-49">
            <stop stop-color="#D4D258" offset="0%"></stop>
            <stop stop-color="#C1D95B" offset="0%"></stop>
            <stop stop-color="#4FB868" offset="45.37%"></stop>
            <stop stop-color="#D9E25D" offset="100%"></stop>
        </linearGradient>
        <linearGradient x1="38.7938056%" y1="29.9750258%" x2="64.9077393%" y2="62.4255463%" id="linearGradient-50">
            <stop stop-color="#FFF347" offset="0%"></stop>
            <stop stop-color="#FEE33A" offset="31.48%"></stop>
            <stop stop-color="#FBBB19" offset="92.47%"></stop>
            <stop stop-color="#FBB514" offset="100%"></stop>
        </linearGradient>
        <linearGradient x1="38.9832158%" y1="13.3107491%" x2="57.4582468%" y2="79.3564712%" id="linearGradient-51">
            <stop stop-color="#D4D258" offset="0%"></stop>
            <stop stop-color="#C1D95B" offset="0%"></stop>
            <stop stop-color="#4FB868" offset="45.37%"></stop>
            <stop stop-color="#D9E25D" offset="100%"></stop>
        </linearGradient>
        <linearGradient x1="0.00162959342%" y1="50.0003049%" x2="100.000407%" y2="50.0003049%" id="linearGradient-52">
            <stop stop-color="#D4D258" offset="0%"></stop>
            <stop stop-color="#9DDCF9" offset="0%"></stop>
            <stop stop-color="#00C0F2" offset="45.37%"></stop>
            <stop stop-color="#A8E0F9" offset="100%"></stop>
        </linearGradient>
        <linearGradient x1="0.00504744599%" y1="50.001511%" x2="100.002019%" y2="50.001511%" id="linearGradient-53">
            <stop stop-color="#D4D258" offset="0%"></stop>
            <stop stop-color="#9DDCF9" offset="0%"></stop>
            <stop stop-color="#00C0F2" offset="45.37%"></stop>
            <stop stop-color="#A8E0F9" offset="100%"></stop>
        </linearGradient>
        <linearGradient x1="-0.00403836446%" y1="49.9992445%" x2="100.003029%" y2="49.9992445%" id="linearGradient-54">
            <stop stop-color="#D4D258" offset="0%"></stop>
            <stop stop-color="#9DDCF9" offset="0%"></stop>
            <stop stop-color="#00C0F2" offset="45.37%"></stop>
            <stop stop-color="#A8E0F9" offset="100%"></stop>
        </linearGradient>
        <linearGradient x1="38.7958208%" y1="29.9759261%" x2="64.9088549%" y2="62.4251032%" id="linearGradient-55">
            <stop stop-color="#FFF347" offset="0%"></stop>
            <stop stop-color="#FEE33A" offset="31.48%"></stop>
            <stop stop-color="#FBBB19" offset="92.47%"></stop>
            <stop stop-color="#FBB514" offset="100%"></stop>
        </linearGradient>
        <linearGradient x1="38.9850125%" y1="13.3075196%" x2="57.4600435%" y2="79.3532417%" id="linearGradient-56">
            <stop stop-color="#D4D258" offset="0%"></stop>
            <stop stop-color="#C1D95B" offset="0%"></stop>
            <stop stop-color="#4FB868" offset="45.37%"></stop>
            <stop stop-color="#D9E25D" offset="100%"></stop>
        </linearGradient>
        <linearGradient x1="38.7958264%" y1="29.9782998%" x2="64.9088605%" y2="62.4274769%" id="linearGradient-57">
            <stop stop-color="#FFF347" offset="0%"></stop>
            <stop stop-color="#FEE33A" offset="31.48%"></stop>
            <stop stop-color="#FBBB19" offset="92.47%"></stop>
            <stop stop-color="#FBB514" offset="100%"></stop>
        </linearGradient>
        <linearGradient x1="38.7964866%" y1="29.978725%" x2="64.9106765%" y2="62.4287971%" id="linearGradient-58">
            <stop stop-color="#FFF347" offset="0%"></stop>
            <stop stop-color="#FEE33A" offset="31.48%"></stop>
            <stop stop-color="#FBBB19" offset="92.47%"></stop>
            <stop stop-color="#FBB514" offset="100%"></stop>
        </linearGradient>
        <linearGradient x1="0.00279642058%" y1="49.9977822%" x2="100.005593%" y2="49.9977822%" id="linearGradient-59">
            <stop stop-color="#D4D258" offset="0%"></stop>
            <stop stop-color="#C1D95B" offset="0%"></stop>
            <stop stop-color="#4FB868" offset="45.37%"></stop>
            <stop stop-color="#D9E25D" offset="100%"></stop>
        </linearGradient>
        <linearGradient x1="57.6280548%" y1="55.439605%" x2="40.5334108%" y2="46.6220797%" id="linearGradient-60">
            <stop stop-color="#FFF347" offset="0%"></stop>
            <stop stop-color="#FEE33A" offset="31.48%"></stop>
            <stop stop-color="#FBBB19" offset="92.47%"></stop>
            <stop stop-color="#FBB514" offset="100%"></stop>
        </linearGradient>
        <linearGradient x1="-0.00504795558%" y1="50.0007556%" x2="100.003029%" y2="50.0007556%" id="linearGradient-61">
            <stop stop-color="#D4D258" offset="0%"></stop>
            <stop stop-color="#9DDCF9" offset="0%"></stop>
            <stop stop-color="#00C0F2" offset="45.37%"></stop>
            <stop stop-color="#A8E0F9" offset="100%"></stop>
        </linearGradient>
        <linearGradient x1="-0.00403836446%" y1="49.9984889%" x2="100.004038%" y2="49.9984889%" id="linearGradient-62">
            <stop stop-color="#D4D258" offset="0%"></stop>
            <stop stop-color="#9DDCF9" offset="0%"></stop>
            <stop stop-color="#00C0F2" offset="45.37%"></stop>
            <stop stop-color="#A8E0F9" offset="100%"></stop>
        </linearGradient>
        <linearGradient x1="-0.00333722677%" y1="50%" x2="100.004172%" y2="50%" id="linearGradient-63">
            <stop stop-color="#F28021" offset="0%"></stop>
            <stop stop-color="#E95725" offset="50.54%"></stop>
            <stop stop-color="#F16D22" offset="100%"></stop>
        </linearGradient>
        <linearGradient x1="0.00333694836%" y1="50%" x2="100.002503%" y2="50%" id="linearGradient-64">
            <stop stop-color="#F28021" offset="0%"></stop>
            <stop stop-color="#E95725" offset="50.54%"></stop>
            <stop stop-color="#F16D22" offset="100%"></stop>
        </linearGradient>
        <linearGradient x1="40.2055941%" y1="13.3138939%" x2="56.6299791%" y2="79.3579518%" id="linearGradient-65">
            <stop stop-color="#D4D258" offset="0%"></stop>
            <stop stop-color="#9DDCF9" offset="0%"></stop>
            <stop stop-color="#00C0F2" offset="45.37%"></stop>
            <stop stop-color="#A8E0F9" offset="100%"></stop>
        </linearGradient>
        <linearGradient x1="60.7827899%" y1="28.9921677%" x2="41.3728679%" y2="76.1404139%" id="linearGradient-66">
            <stop stop-color="#F28021" offset="0%"></stop>
            <stop stop-color="#E95725" offset="50.54%"></stop>
            <stop stop-color="#F16D22" offset="100%"></stop>
        </linearGradient>
        <linearGradient x1="57.6277186%" y1="55.4410789%" x2="40.5330746%" y2="46.6235537%" id="linearGradient-67">
            <stop stop-color="#FFF347" offset="0%"></stop>
            <stop stop-color="#FEE33A" offset="31.48%"></stop>
            <stop stop-color="#FBBB19" offset="92.47%"></stop>
            <stop stop-color="#FBB514" offset="100%"></stop>
        </linearGradient>
        <linearGradient x1="0.00417118545%" y1="49.999054%" x2="100.002503%" y2="49.999054%" id="linearGradient-68">
            <stop stop-color="#F28021" offset="0%"></stop>
            <stop stop-color="#E95725" offset="50.54%"></stop>
            <stop stop-color="#F16D22" offset="100%"></stop>
        </linearGradient>
        <linearGradient x1="0%" y1="49.9995479%" x2="100.000797%" y2="49.9995479%" id="linearGradient-69">
            <stop stop-color="#F28021" offset="0%"></stop>
            <stop stop-color="#E95725" offset="50.54%"></stop>
            <stop stop-color="#F16D22" offset="100%"></stop>
        </linearGradient>
        <linearGradient x1="38.7965341%" y1="29.9740967%" x2="64.9099535%" y2="62.4235721%" id="linearGradient-70">
            <stop stop-color="#FFF347" offset="0%"></stop>
            <stop stop-color="#FEE33A" offset="31.48%"></stop>
            <stop stop-color="#FBBB19" offset="92.47%"></stop>
            <stop stop-color="#FBB514" offset="100%"></stop>
        </linearGradient>
        <linearGradient x1="38.7923102%" y1="29.9749703%" x2="64.9067565%" y2="62.424594%" id="linearGradient-71">
            <stop stop-color="#FFF347" offset="0%"></stop>
            <stop stop-color="#FEE33A" offset="31.48%"></stop>
            <stop stop-color="#FBBB19" offset="92.47%"></stop>
            <stop stop-color="#FBB514" offset="100%"></stop>
        </linearGradient>
        <linearGradient x1="0.00419463087%" y1="49.9992607%" x2="100.006991%" y2="49.9992607%" id="linearGradient-72">
            <stop stop-color="#D4D258" offset="0%"></stop>
            <stop stop-color="#C1D95B" offset="0%"></stop>
            <stop stop-color="#4FB868" offset="45.37%"></stop>
            <stop stop-color="#D9E25D" offset="100%"></stop>
        </linearGradient>
        <linearGradient x1="0.000834237091%" y1="50.0028377%" x2="99.9991658%" y2="50.0028377%" id="linearGradient-73">
            <stop stop-color="#F28021" offset="0%"></stop>
            <stop stop-color="#E95725" offset="50.54%"></stop>
            <stop stop-color="#F16D22" offset="100%"></stop>
        </linearGradient>
        <linearGradient x1="0.00250271127%" y1="49.9981082%" x2="100.000834%" y2="49.9981082%" id="linearGradient-74">
            <stop stop-color="#F28021" offset="0%"></stop>
            <stop stop-color="#E95725" offset="50.54%"></stop>
            <stop stop-color="#F16D22" offset="100%"></stop>
        </linearGradient>
        <linearGradient x1="0.00333694836%" y1="50.0009459%" x2="100.001668%" y2="50.0009459%" id="linearGradient-75">
            <stop stop-color="#F28021" offset="0%"></stop>
            <stop stop-color="#E95725" offset="50.54%"></stop>
            <stop stop-color="#F16D22" offset="100%"></stop>
        </linearGradient>
        <linearGradient x1="0%" y1="49.9981082%" x2="99.9983315%" y2="49.9981082%" id="linearGradient-76">
            <stop stop-color="#F28021" offset="0%"></stop>
            <stop stop-color="#E95725" offset="50.54%"></stop>
            <stop stop-color="#F16D22" offset="100%"></stop>
        </linearGradient>
        <linearGradient x1="0.00417118545%" y1="50.0009459%" x2="100.002503%" y2="50.0009459%" id="linearGradient-77">
            <stop stop-color="#F28021" offset="0%"></stop>
            <stop stop-color="#E95725" offset="50.54%"></stop>
            <stop stop-color="#F16D22" offset="100%"></stop>
        </linearGradient>
        <linearGradient x1="38.9841462%" y1="13.3101196%" x2="57.4591771%" y2="79.3558417%" id="linearGradient-78">
            <stop stop-color="#D4D258" offset="0%"></stop>
            <stop stop-color="#C1D95B" offset="0%"></stop>
            <stop stop-color="#4FB868" offset="45.37%"></stop>
            <stop stop-color="#D9E25D" offset="100%"></stop>
        </linearGradient>
        <linearGradient x1="40.2043563%" y1="13.3074861%" x2="56.6287413%" y2="79.351544%" id="linearGradient-79">
            <stop stop-color="#D4D258" offset="0%"></stop>
            <stop stop-color="#9DDCF9" offset="0%"></stop>
            <stop stop-color="#00C0F2" offset="45.37%"></stop>
            <stop stop-color="#A8E0F9" offset="100%"></stop>
        </linearGradient>
        <linearGradient x1="40.2041803%" y1="13.3058039%" x2="56.6285653%" y2="79.3498618%" id="linearGradient-80">
            <stop stop-color="#D4D258" offset="0%"></stop>
            <stop stop-color="#9DDCF9" offset="0%"></stop>
            <stop stop-color="#00C0F2" offset="45.37%"></stop>
            <stop stop-color="#A8E0F9" offset="100%"></stop>
        </linearGradient>
        <linearGradient x1="60.7846315%" y1="28.994147%" x2="41.3748829%" y2="76.141972%" id="linearGradient-81">
            <stop stop-color="#F28021" offset="0%"></stop>
            <stop stop-color="#E95725" offset="50.54%"></stop>
            <stop stop-color="#F16D22" offset="100%"></stop>
        </linearGradient>
        <linearGradient x1="51.4410929%" y1="51.0817451%" x2="48.3297496%" y2="48.5869936%" id="linearGradient-82">
            <stop stop-color="#FCBA12" offset="0%"></stop>
            <stop stop-color="#EE7D22" offset="100%"></stop>
        </linearGradient>
        <linearGradient x1="51.4448373%" y1="51.08709%" x2="48.333494%" y2="48.5923386%" id="linearGradient-83">
            <stop stop-color="#FCBA12" offset="0%"></stop>
            <stop stop-color="#EE7D22" offset="100%"></stop>
        </linearGradient>
        <linearGradient x1="57.5704314%" y1="55.4400043%" x2="40.6064927%" y2="46.6223828%" id="linearGradient-84">
            <stop stop-color="#FFF347" offset="0%"></stop>
            <stop stop-color="#FEE33A" offset="31.48%"></stop>
            <stop stop-color="#FBBB19" offset="92.47%"></stop>
            <stop stop-color="#FBB514" offset="100%"></stop>
        </linearGradient>
        <linearGradient x1="57.6280548%" y1="55.4421844%" x2="40.5334108%" y2="46.6246591%" id="linearGradient-85">
            <stop stop-color="#FFF347" offset="0%"></stop>
            <stop stop-color="#FEE33A" offset="31.48%"></stop>
            <stop stop-color="#FBBB19" offset="92.47%"></stop>
            <stop stop-color="#FBB514" offset="100%"></stop>
        </linearGradient>
        <linearGradient x1="57.6275505%" y1="55.440342%" x2="40.5329065%" y2="46.6228167%" id="linearGradient-86">
            <stop stop-color="#FFF347" offset="0%"></stop>
            <stop stop-color="#FEE33A" offset="31.48%"></stop>
            <stop stop-color="#FBBB19" offset="92.47%"></stop>
            <stop stop-color="#FBB514" offset="100%"></stop>
        </linearGradient>
        <linearGradient x1="0.00286505587%" y1="50.0007147%" x2="100.00191%" y2="50.0007147%" id="linearGradient-87">
            <stop stop-color="#D4D258" offset="0%"></stop>
            <stop stop-color="#9DDCF9" offset="0%"></stop>
            <stop stop-color="#00C0F2" offset="45.37%"></stop>
            <stop stop-color="#A8E0F9" offset="100%"></stop>
        </linearGradient>
        <linearGradient x1="0.00220835864%" y1="49.9995868%" x2="99.9983437%" y2="49.9995868%" id="linearGradient-88">
            <stop stop-color="#D4D258" offset="0%"></stop>
            <stop stop-color="#9DDCF9" offset="0%"></stop>
            <stop stop-color="#00C0F2" offset="45.37%"></stop>
            <stop stop-color="#A8E0F9" offset="100%"></stop>
        </linearGradient>
        <linearGradient x1="0.00417118545%" y1="50.0018918%" x2="100.002503%" y2="50.0018918%" id="linearGradient-89">
            <stop stop-color="#F28021" offset="0%"></stop>
            <stop stop-color="#E95725" offset="50.54%"></stop>
            <stop stop-color="#F16D22" offset="100%"></stop>
        </linearGradient>
        <linearGradient x1="0.00333694836%" y1="49.9971623%" x2="100.002503%" y2="49.9971623%" id="linearGradient-90">
            <stop stop-color="#F28021" offset="0%"></stop>
            <stop stop-color="#E95725" offset="50.54%"></stop>
            <stop stop-color="#F16D22" offset="100%"></stop>
        </linearGradient>
        <linearGradient x1="0.00166847418%" y1="49.9962164%" x2="100%" y2="49.9962164%" id="linearGradient-91">
            <stop stop-color="#F28021" offset="0%"></stop>
            <stop stop-color="#E95725" offset="50.54%"></stop>
            <stop stop-color="#F16D22" offset="100%"></stop>
        </linearGradient>
        <linearGradient x1="48.4166935%" y1="-0.25878781%" x2="51.3397282%" y2="98.2915608%" id="linearGradient-92">
            <stop stop-color="#D4D258" offset="0%"></stop>
            <stop stop-color="#C1D95B" offset="0%"></stop>
            <stop stop-color="#4FB868" offset="45.37%"></stop>
            <stop stop-color="#D9E25D" offset="100%"></stop>
        </linearGradient>
        <linearGradient x1="0.00166847418%" y1="50%" x2="100%" y2="50%" id="linearGradient-93">
            <stop stop-color="#F28021" offset="0%"></stop>
            <stop stop-color="#E95725" offset="50.54%"></stop>
            <stop stop-color="#F16D22" offset="100%"></stop>
        </linearGradient>
        <linearGradient x1="0.00333694836%" y1="49.9962164%" x2="100.001668%" y2="49.9962164%" id="linearGradient-94">
            <stop stop-color="#F28021" offset="0%"></stop>
            <stop stop-color="#E95725" offset="50.54%"></stop>
            <stop stop-color="#F16D22" offset="100%"></stop>
        </linearGradient>
        <linearGradient x1="-0.00333722676%" y1="50.0018918%" x2="100.003337%" y2="50.0018918%" id="linearGradient-95">
            <stop stop-color="#F28021" offset="0%"></stop>
            <stop stop-color="#E95725" offset="50.54%"></stop>
            <stop stop-color="#F16D22" offset="100%"></stop>
        </linearGradient>
        <linearGradient x1="38.9837528%" y1="13.309593%" x2="57.4587837%" y2="79.3553151%" id="linearGradient-96">
            <stop stop-color="#D4D258" offset="0%"></stop>
            <stop stop-color="#C1D95B" offset="0%"></stop>
            <stop stop-color="#4FB868" offset="45.37%"></stop>
            <stop stop-color="#D9E25D" offset="100%"></stop>
        </linearGradient>
        <linearGradient x1="38.6403375%" y1="13.309331%" x2="57.6885373%" y2="79.3557335%" id="linearGradient-97">
            <stop stop-color="#D4D258" offset="0%"></stop>
            <stop stop-color="#C1D95B" offset="0%"></stop>
            <stop stop-color="#4FB868" offset="45.37%"></stop>
            <stop stop-color="#D9E25D" offset="100%"></stop>
        </linearGradient>
        <linearGradient x1="40.2083951%" y1="13.3066723%" x2="56.6325533%" y2="79.3498186%" id="linearGradient-98">
            <stop stop-color="#D4D258" offset="0%"></stop>
            <stop stop-color="#9DDCF9" offset="0%"></stop>
            <stop stop-color="#00C0F2" offset="45.37%"></stop>
            <stop stop-color="#A8E0F9" offset="100%"></stop>
        </linearGradient>
        <linearGradient x1="0.0030284676%" y1="50%" x2="100.001009%" y2="50%" id="linearGradient-99">
            <stop stop-color="#D4D258" offset="0%"></stop>
            <stop stop-color="#9DDCF9" offset="0%"></stop>
            <stop stop-color="#00C0F2" offset="45.37%"></stop>
            <stop stop-color="#A8E0F9" offset="100%"></stop>
        </linearGradient>
        <linearGradient x1="44.0756913%" y1="13.304482%" x2="54.0105134%" y2="79.353914%" id="linearGradient-100">
            <stop stop-color="#D4D258" offset="0%"></stop>
            <stop stop-color="#C1D95B" offset="0%"></stop>
            <stop stop-color="#4FB868" offset="45.37%"></stop>
            <stop stop-color="#D9E25D" offset="100%"></stop>
        </linearGradient>
        <linearGradient x1="44.0752614%" y1="13.3025892%" x2="54.0100834%" y2="79.3520212%" id="linearGradient-101">
            <stop stop-color="#D4D258" offset="0%"></stop>
            <stop stop-color="#C1D95B" offset="0%"></stop>
            <stop stop-color="#4FB868" offset="45.37%"></stop>
            <stop stop-color="#D9E25D" offset="100%"></stop>
        </linearGradient>
        <linearGradient x1="24.1952656%" y1="45.8801921%" x2="78.0866159%" y2="53.2962228%" id="linearGradient-102">
            <stop stop-color="#D4D258" offset="0%"></stop>
            <stop stop-color="#C1D95B" offset="0%"></stop>
            <stop stop-color="#4FB868" offset="45.37%"></stop>
            <stop stop-color="#D9E25D" offset="100%"></stop>
        </linearGradient>
        <linearGradient x1="24.192468%" y1="45.8786878%" x2="78.0838183%" y2="53.2947185%" id="linearGradient-103">
            <stop stop-color="#D4D258" offset="0%"></stop>
            <stop stop-color="#C1D95B" offset="0%"></stop>
            <stop stop-color="#4FB868" offset="45.37%"></stop>
            <stop stop-color="#D9E25D" offset="100%"></stop>
        </linearGradient>
        <linearGradient x1="72.7507871%" y1="31.3432901%" x2="31.7984189%" y2="68.5444948%" id="linearGradient-104">
            <stop stop-color="#D4D258" offset="0%"></stop>
            <stop stop-color="#C1D95B" offset="0%"></stop>
            <stop stop-color="#4FB868" offset="45.37%"></stop>
            <stop stop-color="#D9E25D" offset="100%"></stop>
        </linearGradient>
        <linearGradient x1="60.7817569%" y1="28.9932502%" x2="41.3718349%" y2="76.1414964%" id="linearGradient-105">
            <stop stop-color="#F28021" offset="0%"></stop>
            <stop stop-color="#E95725" offset="50.54%"></stop>
            <stop stop-color="#F16D22" offset="100%"></stop>
        </linearGradient>
        <linearGradient x1="51.7393193%" y1="48.2276009%" x2="48.1270869%" y2="51.9074022%" id="linearGradient-106">
            <stop stop-color="#FFF347" offset="0%"></stop>
            <stop stop-color="#FEE33A" offset="31.48%"></stop>
            <stop stop-color="#FBBB19" offset="92.47%"></stop>
            <stop stop-color="#FBB514" offset="100%"></stop>
        </linearGradient>
    </defs>
    <g id="Page-1" stroke="none" stroke-width="1" fill="none" fill-rule="evenodd">
        <g id="Desktop-Copy-3" fill-rule="nonzero">
            <g id="Header-BG" transform="translate(649.000000, 188.500000) scale(1, -1) translate(-649.000000, -188.500000) translate(-187.000000, 0.000000)">
                <g id="confetti-colorful-background-by-Vexels">
                    <g id="Group" transform="translate(228.000000, 164.000000)">
                        <path d="M6.40408889,37.46192 C5.78151111,37.4946 5.33044444,41.00808 5.29266667,41.382 C4.94133333,44.91828 6.20084444,48.03124 7.23293333,51.3304 C8.60955556,55.73384 10.3526222,59.87964 9.85244444,64.59012 C9.4112,68.74808 7.60164444,72.7814 4.64591111,75.74312 C5.29795556,75.08952 5.52311111,73.26628 5.6916,72.39076 C5.85026667,71.56388 5.95604444,70.72636 6.0044,69.88504 C6.13435556,67.62708 5.84648889,65.35544 5.19746667,63.19096 C5.05542222,62.71824 1.55191111,53.96988 1.21795556,52.86864 C0.884755556,51.7674 -1.52848889,45.11284 3.29497778,37.99088 C3.55262222,37.61164 6.40106667,37.46192 6.40408889,37.46192 Z" id="Path" fill="url(#linearGradient-1)"></path>
                        <path d="M27.4863556,22.3364 C27.8278667,22.75896 26.5502222,25.04656 26.3439556,25.3916 C25.1486667,27.3904 22.7172889,28.3176 20.5820889,28.95524 C17.8439556,29.77224 15.1118667,30.55428 12.3858222,31.38952 C12.3858222,31.38952 5.2292,33.08736 2.7336,38.53656 C2.43288889,39.1932 2.10346667,39.8468 1.83222222,40.51332 C2.01506667,40.06492 4.05204444,39.67276 4.50008889,39.53444 C5.88653333,39.10656 7.2896,38.73416 8.70551111,38.41724 C15.5908889,36.8752 24.9801778,37.86396 29.5210667,31.2398 C29.6706667,31.02168 29.9101778,25.3346 29.9101778,25.3346 C29.9101778,25.3346 27.4886222,22.33944 27.4863556,22.3364 Z" id="Path" fill="url(#linearGradient-2)"></path>
                        <path d="M23.6934667,0.06536 C22.5835556,0.4294 21.4320889,0.29868 20.3289778,0.88008 C18.0426667,2.0862 18.2073778,4.37 18.9017333,6.57932 C20.9326667,13.04312 25.6193778,18.27344 28.2872444,24.46288 C28.6234667,25.24264 30.6732889,29.963 28.9113333,32.0492 C28.5539556,32.47252 34.4072444,27.45956 33.2656,22.65104 C32.3090667,18.62456 30.5758222,14.75616 28.2101778,11.36732 C26.0674222,8.29768 22.9787111,5.46972 22.6168,1.52 C22.5669333,0.97964 23.0323556,0.28196 23.6934667,0.06536 Z" id="Path" fill="url(#linearGradient-3)"></path>
                    </g>
                    <g id="Group" transform="translate(567.000000, 178.000000)">
                        <path d="M3.79465714,41.3732115 C3.19834286,41.5927404 3.83091429,45.0778558 3.90882857,45.4462692 C4.64554286,48.9237885 6.82174286,51.5102788 8.83285714,54.3436442 C11.5174286,58.1250096 14.4797143,61.550875 15.4293429,66.192125 C16.2678857,70.2894904 15.7363714,74.6808269 13.7622857,78.397625 C14.1981429,77.5772404 13.8610286,75.7716346 13.7576571,74.8859231 C13.6596857,74.0495865 13.5069429,73.2193269 13.2978857,72.4035 C12.7355143,70.2120096 11.7627429,68.1329423 10.4698286,66.2658077 C10.1874857,65.8578942 4.10631429,58.5777404 3.44597143,57.6282212 C2.78485714,56.6787019 -1.59454286,51.0651442 0.929571429,42.818 C1.0638,42.3774231 3.79157143,41.3739712 3.79465714,41.3732115 Z" id="Path" fill="url(#linearGradient-4)"></path>
                        <path d="M19.71,20.5840577 C20.1720857,20.8833462 19.6251429,23.4500865 19.5294857,23.8412885 C18.9756,26.1079808 16.8904286,27.7267212 15.0050571,28.9793269 C12.5874,30.5859135 10.1658857,32.1567981 7.76674286,33.7762981 C7.76674286,33.7762981 1.31528571,37.5569038 0.547714286,43.5062115 C0.455142857,44.2232885 0.334028571,44.9456827 0.273085714,45.6627596 C0.313971429,45.1804038 2.17774286,44.190625 2.57271429,43.9232404 C3.79234286,43.0960192 5.04514286,42.3174135 6.32648571,41.5874231 C12.5611714,38.0369808 22.0057714,36.1425 24.4072286,28.4559519 C24.4866857,28.2022404 22.9847143,22.7087019 22.9847143,22.7087019 C22.9847143,22.7087019 19.7130857,20.5863365 19.71,20.5840577 Z" id="Path" fill="url(#linearGradient-5)"></path>
                        <path d="M9.22165714,0.499067308 C8.25197143,1.18196154 7.0902,1.40452885 6.19457143,2.29251923 C4.3362,4.13382692 5.19325714,6.26075 6.54325714,8.15675 C10.4929714,13.7042212 16.6520571,17.2744135 21.1386857,22.3683942 C21.7041429,23.0102692 25.1400857,26.8903846 24.0616286,29.4123077 C23.8433143,29.9235288 28.0136571,23.3764038 25.434,19.13775 C23.274,15.5880673 20.4058286,12.4242692 17.0686286,9.90842308 C14.0454,7.62957692 10.1743714,5.86726923 8.61762857,2.21124038 C8.40394286,1.71065385 8.64462857,0.905461538 9.22165714,0.499067308 Z" id="Path" fill="url(#linearGradient-6)"></path>
                    </g>
                    <g id="Group" transform="translate(252.000000, 70.000000)">
                        <path d="M17.2331333,58.6644118 C17.2507667,58.6208235 17.2691667,58.578 17.2875667,58.5351765 C17.2998333,58.5099412 17.3121,58.4854706 17.3251333,58.4594706 C16.9962333,59.1201765 16.2870667,59.5002353 15.6308,59.7678824 C14.6433333,60.1701176 13.5615667,60.3444706 12.5043333,60.4308824 C10.143,60.6235882 7.56393333,60.3314706 5.4464,59.2157647 C5.4556,59.2203529 4.59616667,61.2812353 4.55016667,61.3951765 C4.50263333,61.5144706 3.64013333,63.5623529 3.6984,63.5929412 C5.85196667,64.7285294 8.45403333,64.9969412 10.8521667,64.8004118 C11.9293333,64.7124706 13.0203,64.5090588 14.0192667,64.0884706 C14.8334667,63.7451176 15.4069333,63.2702353 15.7465667,62.452 C16.1590333,61.4594118 16.5569333,60.4614706 16.9494667,59.4604706 C17.0813333,59.1247647 17.2162667,58.7890588 17.3381667,58.4495294 C17.4478,58.1428824 17.1702667,58.8165882 17.2331333,58.6644118 L17.2331333,58.6644118 Z" id="Path" fill="url(#linearGradient-7)"></path>
                        <path d="M0.0291333333,49.8129412 C3.54276667,50.6334706 6.88926667,52.1192941 9.79033333,54.2681176 C11.8174,55.7692353 13.7233333,57.6343529 14.9477,59.8581176 C15.3785667,60.6427059 15.9213667,61.75 15.6430667,62.6699412 C15.6515,62.6431765 15.6599333,62.6164118 15.6691333,62.5896471 C15.6407667,62.6737647 15.6599333,62.6248235 15.7251,62.4428235 C15.7833667,62.2883529 15.5219333,62.9689412 15.6538,62.6707059 C15.8002333,62.3403529 15.9328667,62.0038824 16.0685667,61.6697059 C16.4726,60.6740588 16.8735667,59.6761176 17.2561333,58.6720588 C17.5168,57.9884118 17.4746333,57.3988235 17.2438667,56.7052353 C16.9456333,55.809 16.4404,54.9815882 15.8945333,54.2161176 C14.2554,51.9166471 12.0052333,50.0522941 9.60403333,48.5901765 C7.1898,47.1204118 4.52793333,46.0765882 1.7779,45.435 C1.69893333,45.4166471 0.9315,47.4920588 0.882433333,47.6151765 C0.8349,47.7321765 0.0544333333,49.8182941 0.0291333333,49.8129412 L0.0291333333,49.8129412 Z" id="Path" fill="url(#linearGradient-8)"></path>
                    </g>
                    <g id="Group" transform="translate(314.000000, 236.000000)">
                        <path d="M0.292424242,22.3277143 C0.383333333,23.0962449 0.637878788,23.8461633 0.881818182,24.5743673 C1.22651515,25.6003673 1.61287879,26.6100816 1.99393939,27.6213469 C2.79242424,29.7423673 3.64015152,31.878898 4.12727273,34.1022857 C4.2719697,34.7637959 4.38333333,35.4470204 4.35909091,36.1263673 C4.34242424,36.592449 4.24469697,37.0934286 3.91742424,37.4385306 C4.01893939,37.3315102 4.26590909,37.2128571 4.3780303,37.1376327 C4.74545455,36.8894694 5.10984848,36.6382041 5.475,36.3869388 C5.83939394,36.134898 6.2030303,35.8820816 6.56590909,35.6269388 C6.6969697,35.5346531 6.89545455,35.4253061 7.01136364,35.3027755 C7.44393939,34.8467755 7.47727273,34.1402857 7.45,33.5408163 C7.40757576,32.600898 7.1719697,31.6687347 6.91969697,30.7683673 C6.29166667,28.5325714 5.41515152,26.375102 4.60757576,24.202898 C4.13106061,22.9194286 3.54924242,21.5661633 3.38712121,20.1911837 C3.38863636,20.2028163 2.89848485,20.5122449 2.92651515,20.4928571 C2.55909091,20.7410204 2.19469697,20.9922857 1.82954545,21.243551 C1.46515152,21.4955918 1.10151515,21.7476327 0.739393939,22.0027755 C0.754545455,21.9911429 0.287878788,22.2920408 0.292424242,22.3277143 L0.292424242,22.3277143 Z" id="Path" fill="url(#linearGradient-9)"></path>
                        <path d="M14.3969697,25.1521224 C14.3462121,25.2118367 14.2909091,25.2653469 14.230303,25.3149796 C14.2484848,25.3002449 14.2651515,25.2862857 14.2825758,25.273102 C13.2924242,26.0385306 18.2287879,22.6611837 17.1128788,23.3149388 C17.1318182,23.3040816 17.1515152,23.292449 17.1712121,23.2808163 C16.6916667,23.5483673 16.1060606,23.5390612 15.5780303,23.4878776 C14.8128788,23.4134286 14.0598485,23.2071429 13.3265152,22.9806939 C11.555303,22.4347347 9.84545455,21.6956735 8.12878788,20.9961633 C6.95984848,20.52 5.76590909,19.9833469 4.52651515,19.7305306 C4.23257576,19.6708163 3.84848485,19.5948163 3.56818182,19.7468163 C3.39924242,19.8383265 3.24090909,19.9569796 3.08181818,20.064 C2.44924242,20.4920816 1.81969697,20.9271429 1.19393939,21.3653061 C0.933333333,21.547551 0.571212121,21.7204898 0.364393939,21.9779592 C0.286363636,22.074898 0.278787879,22.2082857 0.290909091,22.3277143 C0.289393939,22.3153061 0.778787879,22.0074286 0.751515152,22.0260408 C1.11818182,21.7778776 1.48409091,21.5273878 1.84848485,21.2753469 C2.21287879,21.0233061 2.57727273,20.7712653 2.93863636,20.5153469 C2.92272727,20.5262041 3.38787879,20.2276327 3.38484848,20.1911837 C3.36893939,20.0360816 3.39393939,19.8817551 3.51893939,19.7801633 C3.50151515,19.7941224 3.48409091,19.8080816 3.46666667,19.8228163 C3.11742424,20.0694286 2.76742424,20.3160408 2.41742424,20.5626531 C1.78106061,20.9969388 1.14469697,21.4312245 0.507575758,21.8662857 C0.515909091,21.8608571 0.525,21.8554286 0.533333333,21.85 C0.514393939,21.8616327 0.49469697,21.8724898 0.475757576,21.8841224 C0.816666667,21.699551 1.30530303,21.8337143 1.65454545,21.9174694 C2.33181818,22.079551 2.99015152,22.3284898 3.64090909,22.5782041 C5.35227273,23.2358367 7.03181818,23.9787755 8.75151515,24.6131429 C9.94318182,25.0520816 11.1787879,25.4824898 12.444697,25.6220816 C12.8840909,25.6701633 13.344697,25.6779184 13.7727273,25.5491837 C14.2037879,25.4196735 14.5780303,25.0962857 14.9424242,24.8473469 C15.7212121,24.3161224 16.5234848,23.8004082 17.2712121,23.2218776 C17.3507576,23.1606122 17.4242424,23.0946939 17.4893939,23.0171429 C17.4030303,23.1187347 17.1257576,23.2536735 17.0287879,23.3188163 C16.6621212,23.5669796 16.2969697,23.8174694 15.9325758,24.0695102 C15.5681818,24.321551 15.2037879,24.5743673 14.8416667,24.8295102 C14.7242424,24.9124898 14.4992424,25.0326939 14.3969697,25.1521224 L14.3969697,25.1521224 Z" id="Path" fill="url(#linearGradient-10)"></path>
                        <path d="M7.12272727,11.7947347 C9.59621212,13.6706939 11.7560606,16.0794286 13.3393939,18.7836327 C13.9795455,19.877102 14.5363636,21.0574286 14.8075758,22.307551 C14.9977273,23.1823265 15.0340909,24.1804082 14.5378788,24.9605714 C14.4954545,25.0272653 14.4469697,25.0900816 14.3969697,25.1513469 C14.4772727,25.0520816 14.7681818,24.9101633 14.8575758,24.8496735 C15.2242424,24.6015102 15.5901515,24.3502449 15.9545455,24.0989796 C16.319697,23.8469388 16.6833333,23.5941224 17.0454545,23.3389796 C17.1583333,23.259102 17.3954545,23.1334694 17.4909091,23.0148163 C18.0636364,22.307551 18.0969697,21.354449 17.9606061,20.4858776 C17.7681818,19.2597959 17.2333333,18.0926531 16.6439394,17.0193469 C15.1454545,14.2872245 12.9977273,11.8606531 10.5863636,9.94436735 C10.4643939,9.84742857 10.3401515,9.75204082 10.2159091,9.65820408 C10.194697,9.64191837 9.73181818,9.97616327 9.75530303,9.95987755 C9.38787879,10.2080408 9.02348485,10.4593061 8.65909091,10.7105714 C8.29469697,10.9618367 7.93030303,11.2154286 7.56818182,11.4705714 C7.6,11.4488571 7.12575758,11.7978367 7.12272727,11.7947347 L7.12272727,11.7947347 Z" id="Path" fill="url(#linearGradient-11)"></path>
                        <path d="M21.1537879,14.5695102 C21.0840909,14.6470612 21.0098485,14.7168571 20.930303,14.7827755 C20.9477273,14.7680408 20.9651515,14.7540816 20.9825758,14.7401224 C19.9454545,15.5606122 24.844697,12.1863673 23.705303,12.8579592 C23.725,12.8463265 23.7439394,12.8354694 23.7628788,12.8246122 C23.1568182,13.1681633 22.4409091,13.2433878 21.7590909,13.2441633 C20.8681818,13.2449388 19.9787879,13.0968163 19.1090909,12.9083673 C17.1984848,12.4934694 15.3371212,11.8327347 13.519697,11.1068571 C12.405303,10.6609388 11.2954545,10.1878776 10.2151515,9.65897959 C10.180303,9.64191837 9.74166667,9.96918367 9.75454545,9.96065306 C9.38712121,10.2088163 9.02272727,10.4600816 8.65833333,10.7113469 C8.29393939,10.9626122 7.92954545,11.2162041 7.56742424,11.4713469 C7.59318182,11.4535102 7.13484848,11.8024898 7.1219697,11.7955102 C9.67045455,13.0433061 12.3628788,14.1049796 15.0992424,14.823102 C16.3628788,15.1550204 17.6840909,15.4272245 18.994697,15.3737143 C19.4878788,15.353551 19.9871212,15.274449 20.4431818,15.0759184 C20.5522727,15.0278367 20.655303,14.9696735 20.7583333,14.9091837 C21.3151515,14.5811429 21.8431818,14.1817551 22.3757576,13.8141633 C22.9083333,13.4465714 23.4613636,13.0921633 23.9704545,12.688898 C24.0689394,12.6105714 24.1621212,12.5275918 24.2462121,12.4337551 C24.1515152,12.538449 23.8901515,12.6648571 23.7856061,12.7354286 C23.4189394,12.9835918 23.0537879,13.2340816 22.6886364,13.4861224 C22.3242424,13.7373878 21.9598485,13.9909796 21.5984848,14.2461224 C21.4742424,14.3337551 21.2628788,14.4477551 21.1537879,14.5695102 L21.1537879,14.5695102 Z" id="Path" fill="url(#linearGradient-12)"></path>
                        <path d="M16.5840909,2.31102041 C17.2204545,3.154 17.8106061,4.03730612 18.3795455,4.92991837 C19.4590909,6.62285714 20.475,8.40110204 21.1598485,10.3034286 C21.6136364,11.5644082 22.144697,13.4240816 21.1537879,14.5695102 C21.2431818,14.4663673 21.5151515,14.3345306 21.6143939,14.2678367 C21.9818182,14.0196735 22.3469697,13.7684082 22.7113636,13.5171429 C23.0757576,13.2658776 23.4401515,13.0122857 23.8015152,12.7571429 C23.9227273,12.6718367 24.1431818,12.5531837 24.2469697,12.4329796 C25.3022727,11.2138776 24.6492424,9.20763265 24.1515152,7.89081633 C23.4393939,6.00787755 22.4098485,4.24746939 21.3272727,2.56616327 C20.8030303,1.75265306 20.2598485,0.946897959 19.6780303,0.175265306 C19.6113636,0.0868571429 16.6151515,2.35289796 16.5840909,2.31102041 L16.5840909,2.31102041 Z" id="Path" fill="url(#linearGradient-13)"></path>
                    </g>
                    <g id="Group" transform="translate(424.000000, 110.000000)">
                        <path d="M0.315418605,28.44525 C0.435139535,29.4105 0.769744186,30.354 1.09130233,31.269 C1.54486047,32.55825 2.05367442,33.82725 2.5555814,35.0985 C3.60697674,37.76325 4.72283721,40.449 5.36365116,43.24275 C5.55397674,44.0745 5.70055814,44.9325 5.66832558,45.786 C5.64606977,46.371 5.51790698,47.00175 5.08660465,47.43525 C5.22013953,47.301 5.54553488,47.15175 5.69211628,47.0565 C6.17560465,46.7445 6.65602326,46.4295 7.13567442,46.113 C7.61532558,45.7965 8.0942093,45.4785 8.57155814,45.1575 C8.74346512,45.04125 9.00516279,44.904 9.15788372,44.75025 C9.72732558,44.17725 9.77106977,43.28925 9.735,42.53625 C9.67974419,41.355 9.36893023,40.1835 9.03662791,39.05175 C8.21009302,36.2415 7.05586047,33.531 5.99295349,30.801 C5.36518605,29.18775 4.60004651,27.4875 4.38593023,25.7595 C4.38823256,25.77375 3.74281395,26.16225 3.7804186,26.13825 C3.29693023,26.45025 2.81651163,26.76525 2.33609302,27.08175 C1.85644186,27.39825 1.37755814,27.7155 0.900976744,28.0365 C0.924,28.023 0.310046512,28.401 0.315418605,28.44525 L0.315418605,28.44525 Z" id="Path" fill="url(#linearGradient-14)"></path>
                        <path d="M18.882907,31.99575 C18.8161395,32.07075 18.744,32.13825 18.6634186,32.19975 C18.6872093,32.18175 18.7094651,32.16375 18.7324884,32.14725 C17.4286047,33.1095 23.9273023,28.86525 22.4584186,29.6865 C22.4837442,29.67225 22.5090698,29.658 22.5343953,29.64375 C21.9035581,29.97975 21.1322791,29.9685 20.4369767,29.904 C19.4293256,29.811 18.4385581,29.5515 17.4731163,29.26725 C15.1416279,28.58025 12.8907209,27.6525 10.6313721,26.7735 C9.09265116,26.17575 7.52093023,25.50075 5.89011628,25.18275 C5.50332558,25.10775 4.9975814,25.01175 4.62844186,25.203 C4.40588372,25.3185 4.19790698,25.467 3.98839535,25.602 C3.15495349,26.13975 2.32765116,26.6865 1.50265116,27.237 C1.15960465,27.46575 0.683023256,27.68325 0.410581395,28.00725 C0.308511628,28.12875 0.298534884,28.29675 0.313883721,28.446 C0.312348837,28.43025 0.956232558,28.04325 0.920162791,28.0665 C1.40288372,27.75525 1.88406977,27.4395 2.36372093,27.123 C2.84337209,26.8065 3.32302326,26.48925 3.79883721,26.16825 C3.77811628,26.1825 4.39053488,25.80675 4.38593023,25.761 C4.3652093,25.566 4.3982093,25.3725 4.56244186,25.245 C4.5394186,25.26225 4.51716279,25.28025 4.49337209,25.29825 C4.03290698,25.608 3.57244186,25.9185 3.11274419,26.2275 C2.27469767,26.7735 1.43665116,27.31875 0.598604651,27.8655 C0.609348837,27.85875 0.621627907,27.85125 0.632372093,27.84525 C0.607046512,27.8595 0.58172093,27.87375 0.556395349,27.888 C1.00534884,27.6555 1.64846512,27.82425 2.10816279,27.93 C2.99993023,28.13325 3.86637209,28.44675 4.72283721,28.76025 C6.97604651,29.586 9.18627907,30.5205 11.451,31.317 C13.0196512,31.86825 14.6458605,32.409 16.3119767,32.5845 C16.8906279,32.64525 17.4961395,32.655 18.0594419,32.493 C18.6273488,32.33025 19.1192791,31.92375 19.5996977,31.611 C20.625,30.9435 21.6802326,30.2955 22.6648605,29.56875 C22.7692326,29.4915 22.8659302,29.40825 22.9526512,29.3115 C22.8390698,29.439 22.4737674,29.6085 22.3463721,29.691 C21.8628837,30.00225 21.3824651,30.318 20.902814,30.6345 C20.4231628,30.951 19.9442791,31.26825 19.4669302,31.58925 C19.3134419,31.69425 19.0172093,31.845 18.882907,31.99575 L18.882907,31.99575 Z" id="Path" fill="url(#linearGradient-15)"></path>
                        <path d="M9.30676744,15.20925 C12.5630233,17.5665 15.4056279,20.5935 17.49,23.9925 C18.3326512,25.3665 19.0655581,26.85 19.423186,28.42125 C19.6741395,29.52075 19.7209535,30.77475 19.0686279,31.75575 C19.0126047,31.839 18.948907,31.9185 18.882907,31.99575 C18.988814,31.8705 19.371,31.69275 19.4884186,31.617 C19.9711395,31.305 20.4523256,30.99 20.9319767,30.6735 C21.4123953,30.357 21.8912791,30.039 22.3678605,29.718 C22.5159767,29.6175 22.8283256,29.46 22.954186,29.31075 C23.707814,28.422 23.7515581,27.22425 23.5727442,26.13225 C23.3194884,24.591 22.6157442,23.12475 21.8398605,21.7755 C19.8675349,18.342 17.0402791,15.29175 13.8661395,12.88425 C13.7049767,12.762 13.5422791,12.64275 13.378814,12.52425 C13.3504186,12.50325 12.7418372,12.924 12.7725349,12.90375 C12.2890465,13.21575 11.8086279,13.5315 11.3289767,13.84725 C10.8485581,14.16375 10.3696744,14.48175 9.89309302,14.80275 C9.93530233,14.77425 9.31137209,15.213 9.30676744,15.20925 L9.30676744,15.20925 Z" id="Path" fill="url(#linearGradient-16)"></path>
                        <path d="M27.7767907,18.696 C27.6854651,18.7935 27.588,18.88125 27.4828605,18.96375 C27.5058837,18.94575 27.528907,18.92775 27.5519302,18.90975 C26.1866512,19.941 32.6354651,15.7005 31.1358837,16.54425 C31.1612093,16.53 31.1865349,16.51575 31.2118605,16.50225 C30.4144884,16.93425 29.4713023,17.02875 28.5741628,17.0295 C27.4015116,17.031 26.2303953,16.8435 25.0853721,16.60725 C22.5696977,16.086 20.1200233,15.25575 17.727907,14.343 C16.2605581,13.782 14.8001163,13.18875 13.3780465,12.5235 C13.332,12.50175 12.7548837,12.9135 12.7717674,12.903 C12.2882791,13.215 11.8078605,13.53075 11.3282093,13.8465 C10.8477907,14.163 10.368907,14.481 9.89232558,14.802 C9.92609302,14.7795 9.32365116,15.2175 9.306,15.20925 C12.6604884,16.7775 16.2045349,18.11175 19.806907,19.01475 C21.4699535,19.43175 23.2089767,19.7745 24.9349535,19.70625 C25.5842093,19.68075 26.2411395,19.581 26.8420465,19.33125 C26.9855581,19.27125 27.1213953,19.19775 27.2564651,19.12125 C27.9901395,18.70875 28.6846744,18.207 29.3853488,17.745 C30.0860233,17.283 30.8143256,16.8375 31.4850698,16.33125 C31.6147674,16.233 31.7367907,16.128 31.8480698,16.01025 C31.7237442,16.14225 31.3799302,16.3005 31.2425581,16.38975 C30.7590698,16.70175 30.2786512,17.01675 29.799,17.33325 C29.3193488,17.64975 28.8396977,17.967 28.3638837,18.288 C28.1996512,18.39975 27.9210698,18.54375 27.7767907,18.696 L27.7767907,18.696 Z" id="Path" fill="url(#linearGradient-17)"></path>
                        <path d="M21.7623488,3.291 C22.6003953,4.35075 23.3770465,5.46 24.1253023,6.582 C25.5466047,8.70975 26.8842558,10.94475 27.7852326,13.335 C28.3823023,14.91975 29.0814419,17.2575 27.7767907,18.696 C27.8949767,18.56625 28.2526047,18.40125 28.3830698,18.3165 C28.8665581,18.0045 29.3469767,17.68875 29.8266279,17.373 C30.3062791,17.0565 30.7859302,16.73925 31.2617442,16.4175 C31.4206047,16.31025 31.7114651,16.161 31.8480698,16.01025 C33.2371395,14.478 32.3776047,11.95725 31.7222093,10.302 C30.7851628,7.93575 29.4298605,5.72325 28.0047209,3.6105 C27.3147907,2.58825 26.5995349,1.57575 25.8336279,0.60525 C25.746907,0.49575 21.8030233,3.3435 21.7623488,3.291 L21.7623488,3.291 Z" id="Path" fill="url(#linearGradient-18)"></path>
                    </g>
                    <g id="Group" transform="translate(349.000000, 168.000000)">
                        <path d="M27.7488214,9.44592683 C26.4549821,8.84709756 25.0252321,8.52273171 23.6400179,8.20517073 C21.6888929,7.75756098 19.7193393,7.39085366 17.753625,7.01507317 C13.6325357,6.22570732 9.43696429,5.49834146 5.46791071,4.11770732 C4.28694643,3.70714634 3.10675,3.22173171 2.06783929,2.52763415 C1.35603571,2.05129268 0.668803571,1.41239024 0.457642857,0.562536585 C0.522910714,0.825658537 0.460714286,1.33073171 0.466857143,1.5794878 C0.486821429,2.39834146 0.512160714,3.21643902 0.540571429,4.03529268 C0.568982143,4.85339024 0.598928571,5.6722439 0.635017857,6.49034146 C0.648071429,6.78597561 0.619660714,7.20560976 0.694910714,7.50653659 C0.973642857,8.62934146 2.04710714,9.36426829 3.01153571,9.90034146 C4.52498214,10.7426341 6.22041071,11.2711463 7.88358929,11.7421951 C12.0138929,12.911878 16.2708929,13.6135366 20.4810536,14.438439 C22.9689107,14.926878 25.671,15.3170244 27.9853214,16.3899268 C27.966125,16.3816098 27.9738036,15.3094634 27.9761071,15.3722195 C27.9569107,14.5533659 27.9300357,13.7345122 27.9031607,12.9164146 C27.8755179,12.0983171 27.8455714,11.2802195 27.8094821,10.462878 C27.81025,10.4999268 27.8079464,9.47314634 27.7488214,9.44592683 L27.7488214,9.44592683 Z" id="Path" fill="url(#linearGradient-19)"></path>
                        <path d="M9.15823214,28.9668537 C9.116,28.8292439 9.08682143,28.690122 9.07069643,28.5472195 C9.07530357,28.589561 9.07991071,28.6296341 9.08375,28.6704634 C8.88026786,26.3681463 9.20660714,37.4200244 9.30489286,35.0277317 C9.30335714,35.068561 9.30182143,35.1101463 9.29951786,35.1517317 C9.36248214,34.1370488 9.96525,33.2214146 10.5756964,32.4380976 C11.4602679,31.302439 12.539875,30.3142195 13.6302321,29.3766585 C16.2639821,27.1106341 19.1380714,25.1266341 21.956875,23.0957561 C23.87575,21.7120976 25.9159464,20.3473415 27.5560893,18.6362927 C27.9453929,18.2310244 28.449875,17.6979756 28.4936429,17.1089756 C28.51975,16.7528537 28.4936429,16.3899268 28.4851964,16.0353171 C28.4506429,14.6229268 28.4022679,13.2112927 28.3462143,11.7996585 C28.3231786,11.2129268 28.4160893,10.4749756 28.2202857,9.89882927 C28.1465714,9.68258537 27.9453929,9.54195122 27.7472857,9.44592683 C27.7687857,9.4565122 27.7580357,10.524878 27.7572679,10.4643902 C27.7764643,11.2824878 27.8025714,12.1013415 27.8302143,12.919439 C27.8578571,13.7382927 27.8878036,14.5563902 27.9238929,15.3737317 C27.9223571,15.3381951 27.923125,16.3611951 27.9837857,16.3899268 C28.2417857,16.5146829 28.4583214,16.7037073 28.4921071,16.9978293 C28.4875,16.957 28.4828929,16.9161707 28.4782857,16.8738293 C28.4437321,16.0844634 28.4084107,15.2935854 28.374625,14.5049756 C28.3339286,13.0812439 28.294,11.6575122 28.2533036,10.2322683 C28.2533036,10.2511707 28.2533036,10.2700732 28.2525357,10.2882195 C28.2540714,10.2473902 28.2556071,10.2058049 28.2579107,10.1642195 C28.2049286,10.881 27.503875,11.5214146 27.0208929,11.9917073 C26.0871786,12.903561 25.0352143,13.7012439 23.9916964,14.4860732 C21.2435357,16.5509756 18.39325,18.4812927 15.6735,20.5824878 C13.7899464,22.0379756 11.8749107,23.5713415 10.3852679,25.4336098 C9.8685,26.0808293 9.39319643,26.799122 9.16514286,27.5983171 C8.93478571,28.4043171 9.06532143,29.3063415 9.08835714,30.1221707 C9.1375,31.8649756 9.13903571,33.627439 9.29260714,35.3664634 C9.30873214,35.5509512 9.33867857,35.7309024 9.39319643,35.9085854 C9.32101786,35.6741951 9.38935714,35.1063659 9.38321429,34.890878 C9.36401786,34.0720244 9.33791071,33.2539268 9.31026786,32.4358293 C9.282625,31.6177317 9.25267857,30.7996341 9.21658929,29.9807805 C9.20507143,29.7146341 9.24346429,29.2428293 9.15823214,28.9668537 L9.15823214,28.9668537 Z" id="Path" fill="url(#linearGradient-20)"></path>
                        <path d="M37.3700714,30.3981463 C31.9497679,32.4872439 26.0103929,33.5669512 20.1877321,33.4512683 C17.8334821,33.4043902 15.4270179,33.1420244 13.1971607,32.3624878 C11.636875,31.8173415 10.0389643,30.9092683 9.31564286,29.3736341 C9.25421429,29.2428293 9.20430357,29.1044634 9.15823214,28.9668537 C9.23348214,29.1899024 9.16283929,29.7849512 9.16744643,29.9838049 C9.18741071,30.8019024 9.21275,31.6215122 9.24039286,32.4388537 C9.26803571,33.2577073 9.29875,34.076561 9.33407143,34.8939024 C9.34558929,35.1487073 9.304125,35.6439512 9.39319643,35.9093415 C9.92455357,37.4956341 11.3834821,38.4694878 12.8792679,39.0940244 C14.9916429,39.9756341 17.3551071,40.2591707 19.6271964,40.3672927 C25.407625,40.6432683 31.3638929,39.6013659 36.7849643,37.6483659 C37.0598571,37.5493171 37.3324464,37.4457317 37.6050357,37.3413902 C37.6526429,37.3232439 37.5935179,36.2707561 37.5958214,36.3236829 C37.576625,35.5048293 37.54975,34.6859756 37.5221071,33.8686341 C37.4944643,33.0505366 37.4645179,32.2309268 37.4284286,31.4135854 C37.4330357,31.4854146 37.3623929,30.4011707 37.3700714,30.3981463 L37.3700714,30.3981463 Z" id="Path" fill="url(#linearGradient-21)"></path>
                        <path d="M18.9330536,49.8510244 C18.8816071,49.6665366 18.8462857,49.4820488 18.8240179,49.2922683 C18.828625,49.3338537 18.834,49.375439 18.8378393,49.4162683 C18.5951964,46.9869268 18.9545536,57.9760488 19.0482321,55.5308293 C19.0466964,55.5724146 19.0451607,55.614 19.0428571,55.6548293 C19.1135,54.366439 19.7155,53.1642439 20.3988929,52.0890732 C21.2919107,50.6827317 22.419125,49.4230732 23.5862679,48.2329756 C26.15475,45.6191463 29.0580179,43.322122 32.0204107,41.1566585 C33.8386964,39.8289512 35.6923036,38.5352683 37.6058036,37.3429024 C37.6672321,37.3043415 37.5958214,36.2964634 37.5965893,36.3251951 C37.5773929,35.5063415 37.5505179,34.6874878 37.522875,33.8701463 C37.4952321,33.0520488 37.4652857,32.232439 37.4291964,31.4150976 C37.4315,31.472561 37.3455,30.4140244 37.3700714,30.3989024 C32.8566071,33.2123415 28.4913393,36.4348293 24.6175,40.0572927 C22.8283929,41.7297805 21.075375,43.5504634 19.8429643,45.670561 C19.3799464,46.4682439 19.0021607,47.3324634 18.8539643,48.243561 C18.8194107,48.4620732 18.807125,48.6813415 18.7986786,48.902122 C18.7526071,50.0982683 18.8470536,51.3170976 18.88775,52.5117317 C18.9284464,53.707122 18.9269107,54.9221707 19.0459286,56.1145366 C19.0689643,56.3459024 19.1065893,56.5727317 19.1687857,56.7965366 C19.0989107,56.5462683 19.1649464,56.0117073 19.1588036,55.7788293 C19.1388393,54.9599756 19.1135,54.141878 19.0850893,53.3230244 C19.0574464,52.5049268 19.0275,51.6860732 18.9914107,50.8687317 C18.9798929,50.5851951 19.0136786,50.1413659 18.9330536,49.8510244 L18.9330536,49.8510244 Z" id="Path" fill="url(#linearGradient-22)"></path>
                        <path d="M42.7082143,54.4881707 C40.7486429,54.6779512 38.7744821,54.7550732 36.8064643,54.7898537 C33.072375,54.8571463 29.2684107,54.7414634 25.6034286,53.9838537 C23.1739286,53.4810488 19.7300893,52.5208049 18.9330536,49.8517805 C19.0044643,50.0929756 18.9376607,50.6487073 18.9430357,50.8694878 C18.963,51.6883415 18.9891071,52.5079512 19.0159821,53.3252927 C19.043625,54.1433902 19.0735714,54.9622439 19.1104286,55.7803415 C19.1219464,56.0532927 19.086625,56.5160244 19.1695536,56.7965366 C20.0180357,59.6394634 23.8127857,60.5475366 26.3743571,61.0352195 C30.0362679,61.7323415 33.8256429,61.8087073 37.544375,61.7255366 C39.3442321,61.6847073 41.151,61.6068293 42.9439464,61.4336829 C43.1474286,61.4125122 42.6106964,54.4972439 42.7082143,54.4881707 L42.7082143,54.4881707 Z" id="Path" fill="url(#linearGradient-23)"></path>
                    </g>
                    <g id="Group" transform="translate(299.000000, 30.000000)">
                        <path d="M124.532576,3.94624506 C124.532576,3.94624506 111.995455,19.6128379 86.719697,16.2919209 C84.4113636,15.9883636 72.5431818,12.6849012 74.8060606,4.02820553 C75.4136364,1.70371542 78.8098485,1.87750198 80.5628788,2.4170751 C83.7,3.38238735 85.5492424,6.37166798 86.8825758,9.16894862 C88.4901515,12.5407115 89.494697,16.3420079 88.9727273,20.096253 C88.6348485,22.5254704 83.4878788,40.7616759 64.4651515,46.3410593 C62.5734848,46.8958103 38.2810606,51.6221976 32.1106061,77.75317 C31.125,81.9255652 29.8939394,86.0349723 28.8325758,90.1876364 C27.7742424,94.328917 27.0537879,98.4626087 26.5643939,102.704822 C26.4060606,104.074625 26.2121212,105.44898 25.8068182,106.770972 C24.9272727,109.642625 23.0075758,112.281296 21.2454545,114.677123 C19.4030303,117.18147 17.3401515,119.528727 15.0401515,121.622514 C13.9462121,122.618182 12.7992424,123.556933 11.7537879,124.603447 C7.63712121,128.723478 5.3030303,134.225455 3.14848485,139.538466 C5.21666667,135.510261 7.86287879,131.779542 10.980303,128.49581 C13.2909091,126.062798 15.8507576,123.883257 18.1734848,121.462387 C20.4272727,119.112854 22.3333333,116.430925 24.1,113.703462 C26.0189394,110.740743 27.6348485,107.328 28.2962121,103.84468 C28.5075758,102.730625 28.8492424,101.637818 29.1742424,100.551842 C30.3522727,96.6162213 31.7159091,92.7337233 33.1901515,88.8997945 C35.2045455,83.6603953 37.4515152,78.5029565 40.0242424,73.5132332 C42.6583333,68.4043636 45.6318182,63.4093281 49.2795455,58.9531067 C51.0848485,56.7477628 53.0689394,54.6661186 55.3151515,52.9054862 C56.7833333,51.7542451 64.7848485,47.0453123 71.6295455,44.6957787 C73.6083333,44.0165692 89.0454545,39.473834 93.6962121,20.6396206 C95.0666667,15.0890751 93.575,8.04426877 89.4856061,3.9864664 C85.7098485,0.24056917 80.4530303,-0.472790514 75.4840909,1.01008696 C70.8287879,2.39886166 67.2174242,8.09132016 70.3318182,12.5338814 C70.6462121,12.9823874 77.9962121,23.5317628 97.0030303,20.2412016 C101.125758,19.527083 123.353788,15.1391621 124.532576,3.94624506 Z" id="Path" fill="url(#linearGradient-24)"></path>
                        <path d="M7.25378788,130.622229 C7.0780303,131.118545 6.71818182,131.605755 6.47651515,132.072474 C5.81590909,133.350451 5.19393939,134.648917 4.60909091,135.96332 C3.03863636,139.492174 1.54090909,143.27981 0.845454545,147.088696 C0.177272727,150.746561 0.609848485,154.705708 1.78863636,158.205723 C3.14772727,162.242277 4.18030303,166.229502 4.15757576,170.513455 C4.13560606,174.751115 3.61969697,179.003194 2.46439394,183.08604 C2.18863636,184.061217 1.87575758,185.025771 1.52424242,185.976664 L7.73636364,191.615241 C7.73636364,191.615241 12.8128788,177.48996 6.18560606,155.073771 C5.70151515,153.438356 2.45681818,144.138877 7.25378788,130.622229 Z" id="Path" fill="url(#linearGradient-25)"></path>
                    </g>
                    <path d="M306.090045,119.620027 C306.319501,120.3159 308,127 308,127 L297,120.873342 L298.222404,116 L306.090045,119.620027 Z" id="Path" fill="url(#linearGradient-26)"></path>
                    <path d="M409.610808,137.961654 C409.777311,138.530978 411,144 411,144 L403,138.987462 L403.888968,135 L409.610808,137.961654 Z" id="Path" fill="url(#linearGradient-27)"></path>
                    <path d="M376.162789,143.913155 C374.932091,144.475004 363,149 363,149 L371.727732,129 L381,129.802749 L376.162789,143.913155 Z" id="Path" fill="url(#linearGradient-28)"></path>
                    <polygon id="Path" fill="url(#linearGradient-29)" points="313 300.875017 316.527679 298 322 305.874949 317.5 309"></polygon>
                    <polygon id="Path" fill="url(#linearGradient-30)" points="238 373.598562 240.500209 369 245.249854 372.968218 247 377 245.249854 377"></polygon>
                    <path d="M237,154.181209 L229.813848,156 C229.813848,156 221.893112,148.151814 222.001094,140.256 L227.067902,140 C227.067902,140.000744 227.363712,146.874047 237,154.181209 Z" id="Path" fill="url(#linearGradient-31)"></path>
                    <polygon id="Path" fill="url(#linearGradient-32)" points="208 182.598562 209.945053 178 213.639558 181.968218 215 186 213.639558 186"></polygon>
                    <polygon id="Path" fill="url(#linearGradient-33)" points="185 119.874808 188.527725 117 194 124.875174 189.5 128"></polygon>
                    <polygon id="Path" fill="url(#linearGradient-34)" points="336 188.641281 339 186 343 193.735721 340.587986 196"></polygon>
                    <polygon id="Path" fill="url(#linearGradient-35)" points="412 178.339593 419.285504 172 429 190.565729 423.143012 196"></polygon>
                    <polygon id="Path" fill="url(#linearGradient-36)" points="583 174.641281 585.999697 172 590 179.735721 587.588229 182"></polygon>
                    <polygon id="Path" fill="url(#linearGradient-37)" points="496 183.641281 499.000404 181 503 188.735721 500.588229 191"></polygon>
                    <polygon id="Path" fill="url(#linearGradient-38)" points="473 125.641281 475.999697 123 480 130.735721 477.588229 133"></polygon>
                    <polygon id="Path" fill="url(#linearGradient-39)" points="276 205.598562 278.499458 201 283.249854 204.968218 285 209 283.249854 209"></polygon>
                    <path d="M355,221.691723 C354.548241,222.130169 350,226 350,226 L350.324298,216.204794 L354.635366,215 L355,221.691723 Z" id="Path" fill="url(#linearGradient-40)"></path>
                    <path d="M406,237.691723 C405.548241,238.130169 401,242 401,242 L401.324298,232.204794 L405.635366,231 L406,237.691723 Z" id="Path" fill="url(#linearGradient-41)"></path>
                    <path d="M487,283.691723 C486.548241,284.130169 482,288 482,288 L482.324298,278.204794 L486.635366,277 L487,283.691723 Z" id="Path" fill="url(#linearGradient-42)"></path>
                    <path d="M330,218.258315 C329.729245,218.537404 327,221 327,221 L327.194465,214.766761 L329.780853,214 L330,218.258315 Z" id="Path" fill="url(#linearGradient-43)"></path>
                    <path d="M341,146.474712 C340.729024,146.834147 338,150 338,150 L338.194531,141.985699 L340.781231,141 L341,146.474712 Z" id="Path" fill="url(#linearGradient-44)"></path>
                    <path d="M590,147.474712 C589.729024,147.833362 587,151 587,151 L587.194531,142.985699 L589.781231,142 L590,147.474712 Z" id="Path" fill="url(#linearGradient-45)"></path>
                    <path d="M285.970454,157 C285.588119,156.982371 282,156.542478 282,156.542478 L286.764981,152 L289,153.600067 L285.970454,157 Z" id="Path" fill="url(#linearGradient-46)"></path>
                    <path d="M279,287.258315 C278.729245,287.537404 276,290 276,290 L276.194465,283.766761 L278.780853,283 L279,287.258315 Z" id="Path" fill="url(#linearGradient-47)"></path>
                    <polygon id="Path" fill="url(#linearGradient-48)" points="436 337.874821 439.526948 335 445 342.875162 440.5 346"></polygon>
                    <path d="M401,305.258315 C400.729245,305.537404 398,308 398,308 L398.194465,301.766761 L400.780853,301 L401,305.258315 Z" id="Path" fill="url(#linearGradient-49)"></path>
                    <path d="M557.718821,164 L555,158.856035 C555,158.856035 559.698413,151.371573 565.884354,150 L567,153.816125 C567,153.816125 561.684807,155.306835 557.718821,164 Z" id="Path" fill="url(#linearGradient-50)"></path>
                    <path d="M621,165.691723 C620.548241,166.130916 616,170 616,170 L616.324298,160.204794 L620.635366,159 L621,165.691723 Z" id="Path" fill="url(#linearGradient-51)"></path>
                    <polygon id="Path" fill="url(#linearGradient-52)" points="682 163.603702 690.143078 157 701 176.340011 694.453801 182"></polygon>
                    <polygon id="Path" fill="url(#linearGradient-53)" points="668 239.642037 671.000404 237 675 244.735721 672.588229 247"></polygon>
                    <polygon id="Path" fill="url(#linearGradient-54)" points="601 276.641281 604 274 608 281.735721 605.587986 284"></polygon>
                    <path d="M627.718821,133 L625,127.856035 C625,127.856035 629.698413,120.371573 635.884354,119 L637,122.816125 C637,122.816125 631.684807,124.306835 627.718821,133 Z" id="Path" fill="url(#linearGradient-55)"></path>
                    <path d="M672,140.691723 C671.548241,141.130916 667,145 667,145 L667.324298,135.204794 L671.635366,134 L672,140.691723 Z" id="Path" fill="url(#linearGradient-56)"></path>
                    <path d="M460.718821,209 L458,203.856035 C458,203.856035 462.698413,196.371573 468.884354,195 L470,198.816125 C470,198.816125 464.684807,200.307589 460.718821,209 Z" id="Path" fill="url(#linearGradient-57)"></path>
                    <path d="M498.718821,151 L496,145.856035 C496,145.856035 500.698413,138.371573 506.884354,137 L508,140.816125 C508,140.816125 502.684807,142.307589 498.718821,151 Z" id="Path" fill="url(#linearGradient-58)"></path>
                    <polygon id="Path" fill="url(#linearGradient-59)" points="458 152.769498 463.348154 151 464 160.102831 459.174497 162"></polygon>
                    <path d="M722.59233,240 L728.996955,243.439458 C728.996955,243.439458 729.301759,254.359201 723.812294,260 L720,256.832486 C720,256.831749 724.499598,251.66335 722.59233,240 Z" id="Path" fill="url(#linearGradient-60)"></path>
                    <polygon id="Path" fill="url(#linearGradient-61)" points="787 190.641481 790 188 794 195.736305 791.587986 198"></polygon>
                    <polygon id="Path" fill="url(#linearGradient-62)" points="825 183.641481 828 181 832 188.73555 829.588693 191"></polygon>
                    <polygon id="Path" fill="url(#linearGradient-63)" points="761 231.598562 763.499666 227 768.250459 230.968218 770 235 768.250459 235"></polygon>
                    <polygon id="Path" fill="url(#linearGradient-64)" points="744 205.59824 746.500209 201 751.249854 204.968593 753 209 751.249854 209"></polygon>
                    <path d="M754,256.258315 C753.729245,256.537404 751,259 751,259 L751.194465,252.766761 L753.780853,252 L754,256.258315 Z" id="Path" fill="url(#linearGradient-65)"></path>
                    <path d="M714.476664,203.997451 C713.856159,204.021507 708,203.867395 708,203.867395 L715.20505,197 L719,198.926028 L714.476664,203.997451 Z" id="Path" fill="url(#linearGradient-66)"></path>
                    <path d="M725.59233,160 L731.996955,163.439458 C731.996955,163.439458 732.301759,174.359201 726.812294,180 L723,176.832486 C723,176.832486 727.499598,171.66335 725.59233,160 Z" id="Path" fill="url(#linearGradient-67)"></path>
                    <polygon id="Path" fill="url(#linearGradient-68)" points="764 150.59824 766.500209 146 771.250605 149.968593 773 154 771.250605 154"></polygon>
                    <polygon id="Path" fill="url(#linearGradient-69)" points="514 169.771599 519.277483 160 529.305913 168.43275 533 177 529.305913 177"></polygon>
                    <polygon id="Path" fill="url(#linearGradient-53)" points="497 259.642037 500.000404 257 504 264.735721 501.588229 267"></polygon>
                    <path d="M462.718821,285 L460,279.856035 C460,279.856035 464.698413,272.371573 470.884354,271 L472,274.816125 C472,274.815371 466.684807,276.306835 462.718821,285 Z" id="Path" fill="url(#linearGradient-70)"></path>
                    <path d="M499.718821,227 L497,221.856035 C497,221.856035 501.698413,214.371573 507.884354,213 L509,216.816125 C508.999244,216.815371 503.684051,218.306835 499.718821,227 Z" id="Path" fill="url(#linearGradient-71)"></path>
                    <polygon id="Path" fill="url(#linearGradient-72)" points="460 227.770311 465.348154 226 466 235.103645 461.174497 237"></polygon>
                    <polygon id="Path" fill="url(#linearGradient-73)" points="515 240.598562 517.500209 236 522.249854 239.968975 524 244 522.249854 244"></polygon>
                    <polygon id="Path" fill="url(#linearGradient-74)" points="747 124.598562 749.500209 120 754.249854 123.968218 756 128 754.249854 128"></polygon>
                    <polygon id="Path" fill="url(#linearGradient-75)" points="544 200.598562 546.500209 196 551.249854 199.968218 553 204 551.249854 204"></polygon>
                    <polygon id="Path" fill="url(#linearGradient-76)" points="531 310.598562 533.500209 306 538.249854 309.968218 540 314 538.249854 314"></polygon>
                    <polygon id="Path" fill="url(#linearGradient-77)" points="735 334.598562 737.500209 330 742.249854 333.968975 744 338 742.249854 338"></polygon>
                    <path d="M805,161.691723 C804.548241,162.130169 800,166 800,166 L800.324298,156.204794 L804.635366,155 L805,161.691723 Z" id="Path" fill="url(#linearGradient-78)"></path>
                    <path d="M757,176.258315 C756.729245,176.537404 754,179 754,179 L754.194465,172.766761 L756.780853,172 L757,176.258315 Z" id="Path" fill="url(#linearGradient-79)"></path>
                    <path d="M832,129.258315 C831.729245,129.537404 829,132 829,132 L829.194465,125.766761 L831.780853,125 L832,129.258315 Z" id="Path" fill="url(#linearGradient-80)"></path>
                    <path d="M648.476664,192.997451 C647.856159,193.021507 642,192.867395 642,192.867395 L649.20505,186 L653,187.926028 L648.476664,192.997451 Z" id="Path" fill="url(#linearGradient-81)"></path>
                    <path d="M190.988501,213 C190.763389,210.327274 190.811957,207.617458 190.900615,204.941704 C191.122643,198.226962 191.969896,191.528116 193.37299,184.954163 C194.276521,180.723672 195.439855,176.546922 196.85143,172.451921 C198.214436,168.499223 199.898149,164.682016 201.633514,160.875406 C204.718008,154.105408 207.900411,147.377799 210.944817,140.589634 C214.107175,133.538815 217.135391,126.421385 219.748076,119.154083 C222.133336,112.520333 224.197889,105.723085 225.307258,98.7615836 C226.11982,93.664405 226.314094,88.5066718 225.364307,83.4178194 C224.978071,81.3498817 224.551746,79.2895134 224.118483,77.2314158 C223.973548,76.541094 223.833239,75.8469876 223.667489,75.1612074 C223.516386,74.5390095 223.783899,75.9408471 223.725308,75.6229358 C223.763084,75.8280643 223.764626,75.831849 223.728392,75.6365606 C223.756146,75.7955162 223.781586,75.9544719 223.806256,76.1134276 C223.848657,76.3798676 223.884891,76.6485784 223.920354,76.9165322 C223.912645,76.8620331 223.906477,76.807534 223.899539,76.7530349 C224.66276,82.8463358 223.786212,89.0493919 222.437854,95.0019034 C220.821983,102.132958 218.397405,109.079321 215.733068,115.892464 C212.911461,123.106024 209.751416,130.187878 206.521986,137.234156 C203.44443,143.949654 200.184935,150.603085 197.307821,157.406388 C191.712405,170.638312 188.968662,185.197895 189.00027,199.516017 C189.003354,200.995819 189.021085,202.484704 189.145205,203.961478 C189.271638,205.470799 189.718778,207.009642 190.021753,208.489443 C190.239156,209.554446 190.458871,210.61945 190.687838,211.683696 C190.769556,212.074272 190.953809,212.592014 190.988501,213 L190.988501,213 Z" id="Path" fill="url(#linearGradient-82)"></path>
                    <path d="M531.988501,138 C531.763389,135.327274 531.811957,132.617458 531.900615,129.941704 C532.122643,123.226962 532.969896,116.528116 534.37299,109.954163 C535.276521,105.723672 536.439855,101.546922 537.85143,97.451921 C539.214436,93.4992232 540.898149,89.6820162 542.633514,85.8754062 C545.718008,79.1054083 548.900411,72.3777986 551.944817,65.5896343 C555.107175,58.5388147 558.135391,51.4213851 560.748076,44.154083 C563.133336,37.5203328 565.197889,30.7230853 566.307258,23.7615836 C567.11982,18.664405 567.314094,13.5066718 566.364307,8.41781935 C565.978071,6.3498817 565.551746,4.28951337 565.118483,2.23141584 C564.973548,1.54109405 564.833239,0.846987599 564.667489,0.161207398 C564.516386,-0.460990532 564.783899,0.94084714 564.725308,0.622935789 C564.763084,0.828064304 564.764626,0.831848963 564.728392,0.636560561 C564.756146,0.795516237 564.781586,0.954471913 564.806256,1.11342759 C564.848657,1.37986758 564.884891,1.64857836 564.920354,1.91653222 C564.912645,1.86203313 564.906477,1.80753404 564.899539,1.75303495 C565.66276,7.84633585 564.786212,14.0493919 563.437854,20.0019034 C561.821983,27.1329578 559.397405,34.0793209 556.733068,40.8924639 C553.911461,48.1060238 550.751416,55.1878776 547.521986,62.2341557 C544.44443,68.9496545 541.184935,75.6030849 538.307821,82.4063878 C532.712405,95.6383124 529.968662,110.197895 530.00027,124.516017 C530.003354,125.995819 530.021085,127.484704 530.145205,128.961478 C530.271638,130.470799 530.718778,132.009642 531.021753,133.489443 C531.239156,134.554446 531.458871,135.61945 531.687838,136.683696 C531.768785,137.074272 531.953038,137.592014 531.988501,138 L531.988501,138 Z" id="Path" fill="url(#linearGradient-83)"></path>
                </g>
                <g id="confetti-colorful-background-by-Vexels-Copy" transform="translate(836.000000, 0.000000)">
                    <path d="M156.74493,104 L165.995598,108.986927 C165.995598,108.986927 166.435995,124.82073 158.506517,133 L153,128.406818 C153.000778,128.406818 159.500133,120.911787 156.74493,104 Z" id="Path" fill="url(#linearGradient-84)"></path>
                    <path d="M98.5923303,125 L104.996955,128.439458 C104.996955,128.439458 105.301759,139.359201 99.8122944,145 L96,141.832486 C96,141.832486 100.499598,136.664087 98.5923303,125 Z" id="Path" fill="url(#linearGradient-85)"></path>
                    <path d="M103.59233,210 L109.996955,213.439458 C109.996955,213.439458 110.301759,224.359201 104.812294,230 L101,226.832486 C101,226.831749 105.499598,221.66335 103.59233,210 Z" id="Path" fill="url(#linearGradient-86)"></path>
                    <polygon id="Path" fill="url(#linearGradient-87)" points="170 163.905868 173.428899 161 178 169.509256 175.244198 172"></polygon>
                    <polygon id="Path" fill="url(#linearGradient-88)" points="119 145.754927 125.000221 141 133 154.924135 128.176172 159"></polygon>
                    <polygon id="Path" fill="url(#linearGradient-48)" points="178 275.875017 181.526948 273 187 280.874949 182.5 284"></polygon>
                    <polygon id="Path" fill="url(#linearGradient-89)" points="142 202.598562 144.500209 198 149.250605 201.968975 151 206 149.250605 206"></polygon>
                    <polygon id="Path" fill="url(#linearGradient-90)" points="85 373.598562 87.5002086 369 92.2506048 372.968218 94 377 92.2506048 377"></polygon>
                    <polygon id="Path" fill="url(#linearGradient-91)" points="124 176.597806 126.500209 172 131.249854 175.968218 133 180 131.249854 180"></polygon>
                    <polygon id="Path" fill="url(#linearGradient-92)" points="154.189581 145 159 147.540671 155.128772 152.911575 151.071173 155 151 153.083599"></polygon>
                    <polygon id="Path" fill="url(#linearGradient-33)" points="185 119.874808 188.527725 117 194 124.875174 189.5 128"></polygon>
                    <polygon id="Path" fill="url(#linearGradient-93)" points="33 287.598562 35.5002086 283 40.249854 286.968218 42 291 40.249854 291"></polygon>
                    <polygon id="Path" fill="url(#linearGradient-94)" points="58 240.597806 60.5002086 236 65.249854 239.968218 67 244 65.249854 244"></polygon>
                    <polygon id="Path" fill="url(#linearGradient-95)" points="18 227.598562 20.4996663 223 25.2504589 226.968975 27 231 25.2504589 231"></polygon>
                    <path d="M182,212.691723 C181.548241,213.130169 177,217 177,217 L177.324298,207.204794 L181.635366,206 L182,212.691723 Z" id="Path" fill="url(#linearGradient-96)"></path>
                    <path d="M44,155.908132 C43.4577635,156.426782 38,161 38,161 L38.3893805,149.423904 L43.5631537,148 L44,155.908132 Z" id="Path" fill="url(#linearGradient-97)"></path>
                    <path d="M135,227.258315 C134.729245,227.537404 132,230 132,230 L132.194465,223.766761 L134.780853,223 L135,227.258315 Z" id="Path" fill="url(#linearGradient-98)"></path>
                    <polygon id="Path" fill="url(#linearGradient-99)" points="3 150.641481 6.0004038 148 10 155.73555 7.58822936 158"></polygon>
                    <path d="M52,206.474712 C51.7290242,206.834147 49,210 49,210 L49.1945308,201.985699 L51.7812306,201 L52,206.474712 Z" id="Path" fill="url(#linearGradient-100)"></path>
                    <path d="M26,192.474712 C25.7290242,192.834147 23,196 23,196 L23.1945308,187.985699 L25.7812306,187 L26,192.474712 Z" id="Path" fill="url(#linearGradient-101)"></path>
                    <path d="M150.421923,257.523765 C150.50022,257.948107 151,262 151,262 L146,257.839132 L146.810771,255 L150.421923,257.523765 Z" id="Path" fill="url(#linearGradient-102)"></path>
                    <path d="M36.421923,254.523765 C36.5002195,254.948107 37,259 37,259 L32,254.839132 L32.8107713,252 L36.421923,254.523765 Z" id="Path" fill="url(#linearGradient-103)"></path>
                    <path d="M123.973374,323 C123.3876,322.784049 118,320.34832 118,320.34832 L127.164701,316 L130,319.478656 L123.973374,323 Z" id="Path" fill="url(#linearGradient-104)"></path>
                    <path d="M95.4766641,174.997451 C94.8561591,175.021507 89,174.867395 89,174.867395 L96.2050497,168 L100,169.926028 L95.4766641,174.997451 Z" id="Path" fill="url(#linearGradient-105)"></path>
                    <path d="M102,292 C100.095661,289.323007 98.4553662,286.442132 96.8772443,283.571868 C92.9173556,276.370059 89.6221818,268.80672 86.9863497,261.038741 C85.2907897,256.038706 83.9007222,250.938624 82.8215201,245.774878 C81.779929,240.790001 81.1589656,235.752828 80.5986402,230.695948 C79.6008005,221.703162 78.7311448,212.696732 77.6795752,203.709251 C76.5873245,194.373882 75.3131599,185.049881 73.5109078,175.819864 C71.8660073,167.394005 69.782825,158.990126 66.5981811,150.99098 C64.2663063,145.134489 61.2497601,139.58799 57.0787899,134.806237 C55.3839975,132.862916 53.6508266,130.952944 51.9130503,129.048277 C51.3296979,128.409346 50.7509508,127.763593 50.1484091,127.142094 C49.6026675,126.578955 50.7570914,127.891683 50.4968855,127.593818 C50.6642155,127.787089 50.6680534,127.789363 50.5091666,127.605945 C50.6373506,127.756014 50.7632319,127.908357 50.8883457,128.061458 C51.0994272,128.316121 51.3051357,128.576847 51.509309,128.837574 C51.4678603,128.784519 51.4264116,128.731464 51.3849628,128.678409 C55.9873068,134.629641 58.9424475,141.68896 61.2474573,148.771016 C64.0084032,157.255235 65.807585,166.033529 67.2721067,174.817128 C68.8225961,184.117633 69.9363388,193.484077 70.9556705,202.855069 C71.9274129,211.786463 72.6696521,220.761818 73.9054383,229.663654 C76.310232,246.976948 82.5283088,263.962817 91.4996556,279.013703 C92.426879,280.568967 93.3748268,282.125746 94.4263964,283.604458 C95.500993,285.11652 96.929439,286.46487 98.1705981,287.840504 C99.0632809,288.830355 99.9582664,289.817932 100.861695,290.799446 C101.19175,291.157945 101.708324,291.592236 102,292 L102,292 Z" id="Path" fill="url(#linearGradient-106)"></path>
                </g>
            </g>
        </g>
    </g>
</svg>