
<svg width="1024px" height="732px" viewBox="0 0 1024 732" version="1.1" xmlns="http://www.w3.org/2000/svg" xmlns:xlink="http://www.w3.org/1999/xlink">
    <g id="Page-1" stroke="none" stroke-width="1" fill="none" fill-rule="evenodd" opacity="0.15">
        <g id="Desktop-Copy-2" fill-rule="nonzero">
            <g id="confetti" transform="translate(0.000000, -0.000000)">
                <g id="blue" transform="translate(32.521173, 145.928339)" fill="#59A9C9">
                    <path d="M451.543974,0.0833876221 L446.957655,5.08664495 C446.957655,5.08664495 449.626059,13.5087948 456.547231,14.6762215 L460.716612,7.42149837 C460.716612,7.33811075 454.629316,6.25407166 451.543974,0.0833876221 Z" id="Path"></path>
                    <path d="M872.067752,78.4677524 L876.737459,73.6312704 C876.737459,73.6312704 874.235831,65.1257329 867.398046,63.8749186 L863.061889,71.0462541 C863.061889,70.9628664 869.149186,72.2970684 872.067752,78.4677524 Z" id="Path"></path>
                    <path d="M482.814332,238.571987 L486.983713,243.908795 C486.983713,243.908795 495.739414,242.574593 497.907492,235.986971 L491.403257,230.73355 C491.403257,230.566775 489.318567,236.487296 482.814332,238.571987 Z" id="Path"></path>
                    <path d="M5.2534202,76.9667752 L0.667100977,81.9700326 C0.667100977,81.9700326 3.33550489,90.3921824 10.2566775,91.5596091 L14.4260586,84.304886 C14.4260586,84.2214984 8.25537459,83.0540717 5.2534202,76.9667752 Z" id="Path"></path>
                    <path d="M425.777199,155.267752 L430.446906,150.43127 C430.446906,150.43127 427.945277,141.925733 421.107492,140.674919 L416.771336,147.846254 C416.771336,147.846254 422.858632,149.097068 425.777199,155.267752 Z" id="Path"></path>
                    <path d="M36.4403909,315.371987 L40.609772,320.708795 C40.609772,320.708795 49.3654723,319.374593 51.5335505,312.786971 L45.029316,307.53355 C45.029316,307.450163 42.9446254,313.287296 36.4403909,315.371987 Z" id="Path"></path>
                    <path d="M961.542671,343.056678 L966.212378,338.220195 C966.212378,338.220195 963.710749,329.714658 956.872964,328.463844 L952.536808,335.635179 C952.536808,335.551792 958.624104,336.885993 961.542671,343.056678 Z" id="Path"></path>
                    <path d="M572.205863,503.077524 L576.375244,508.414332 C576.375244,508.414332 585.130945,507.08013 587.299023,500.492508 L580.794788,495.239088 C580.794788,495.1557 578.710098,501.076221 572.205863,503.077524 Z" id="Path"></path>
                    <path d="M94.6449511,341.472313 L90.0586319,346.47557 C90.0586319,346.47557 92.7270358,354.89772 99.6482085,356.065147 L103.81759,348.810423 C103.81759,348.727036 97.7302932,347.642997 94.6449511,341.472313 Z" id="Path"></path>
                    <path d="M515.252117,419.856678 L519.921824,415.020195 C519.921824,415.020195 517.420195,406.514658 510.58241,405.263844 L506.246254,412.435179 C506.246254,412.435179 512.33355,413.685993 515.252117,419.856678 Z" id="Path"></path>
                    <path d="M125.915309,579.960912 L130.084691,585.29772 C130.084691,585.29772 138.840391,583.963518 141.008469,577.375896 L134.504235,572.122476 C134.504235,572.039088 132.419544,577.876221 125.915309,579.960912 Z" id="Path"></path>
                </g>
                <g id="yellow" transform="translate(166.775244, 69.211726)" fill="#E0D957">
                    <path d="M602.975896,210.553746 L598.389577,215.557003 C598.389577,215.557003 601.05798,223.979153 607.979153,225.14658 L612.148534,217.891857 C612.148534,217.808469 605.97785,216.641042 602.975896,210.553746 Z" id="Path"></path>
                    <path d="M455.379805,14.8429967 L460.049511,10.0065147 C460.049511,10.0065147 457.547883,1.5009772 450.710098,0.250162866 L446.373941,7.42149837 C446.373941,7.42149837 452.461238,8.6723127 455.379805,14.8429967 Z" id="Path"></path>
                    <path d="M361.985668,67.0436482 L366.155049,72.380456 C366.155049,72.380456 374.910749,71.0462541 377.078827,64.4586319 L370.574593,59.2052117 C370.574593,59.1218241 368.57329,64.9589577 361.985668,67.0436482 Z" id="Path"></path>
                    <path d="M156.601954,287.353746 L152.015635,292.357003 C152.015635,292.357003 154.684039,300.779153 161.605212,301.94658 L165.774593,294.691857 C165.774593,294.608469 159.687296,293.441042 156.601954,287.353746 Z" id="Path"></path>
                    <path d="M9.00586319,91.7263844 L13.67557,86.8899023 C13.67557,86.8899023 11.1739414,78.3843648 4.33615635,77.1335505 L0,84.2214984 C0,84.2214984 6.08729642,85.4723127 9.00586319,91.7263844 Z" id="Path"></path>
                    <path d="M13.7589577,251.163518 L17.9283388,256.500326 C17.9283388,256.500326 26.6840391,255.166124 28.8521173,248.578502 L22.3478827,243.325081 C22.3478827,243.241694 20.2631922,249.078827 13.7589577,251.163518 Z" id="Path"></path>
                    <path d="M692.450814,475.059283 L687.864495,480.062541 C687.864495,480.062541 690.532899,488.484691 697.454072,489.652117 L701.623453,482.397394 C701.623453,482.314007 695.452769,481.229967 692.450814,475.059283 Z" id="Path"></path>
                    <path d="M544.771336,279.431922 L549.441042,274.59544 C549.441042,274.59544 546.939414,266.089902 540.101629,264.839088 L535.765472,272.010423 C535.84886,271.927036 541.936156,273.261238 544.771336,279.431922 Z" id="Path"></path>
                    <path d="M451.460586,331.632573 L455.629967,336.969381 C455.629967,336.969381 464.385668,335.635179 466.553746,329.047557 L460.049511,323.794137 C460.049511,323.710749 457.964821,329.547883 451.460586,331.632573 Z" id="Path"></path>
                    <path d="M246.076873,551.942671 L241.490554,556.945928 C241.490554,556.945928 244.158958,565.368078 251.08013,566.535505 L255.249511,559.280782 C255.249511,559.197394 249.162215,558.029967 246.076873,551.942671 Z" id="Path"></path>
                    <path d="M98.4807818,356.231922 L103.150489,351.39544 C103.150489,351.39544 100.64886,342.889902 93.8110749,341.639088 L89.4749186,348.810423 C89.4749186,348.810423 95.562215,350.061238 98.4807818,356.231922 Z" id="Path"></path>
                    <path d="M103.150489,515.669055 L107.31987,521.005863 C107.31987,521.005863 116.07557,519.671661 118.243648,513.084039 L111.739414,507.830619 C111.822801,507.747231 109.738111,513.667752 103.150489,515.669055 Z" id="Path"></path>
                </g>
                <g id="pink" transform="translate(157.602606, 49.198697)" fill="#DE509D">
                    <path d="M451.210423,254.499023 L446.624104,259.50228 C446.624104,259.50228 449.292508,267.92443 456.213681,269.091857 L460.383062,261.837134 C460.383062,261.753746 454.212378,260.586319 451.210423,254.499023 Z" id="Path"></path>
                    <path d="M625.990879,14.6762215 L630.660586,9.83973941 C630.660586,9.83973941 628.158958,1.33420195 621.321173,0.0833876221 L616.985016,7.25472313 C616.985016,7.1713355 623.072313,8.50553746 625.990879,14.6762215 Z" id="Path"></path>
                    <path d="M616.317915,151.515309 L620.487296,156.852117 C620.487296,156.852117 629.242997,155.517915 631.411075,148.930293 L624.90684,143.676873 C624.90684,143.593485 622.82215,149.430619 616.317915,151.515309 Z" id="Path"></path>
                    <path d="M4.83648208,331.299023 L0.250162866,336.30228 C0.250162866,336.30228 2.91856678,344.72443 9.83973941,345.891857 L14.0091205,338.637134 C14.0091205,338.553746 7.9218241,337.469707 4.83648208,331.299023 Z" id="Path"></path>
                    <path d="M179.700326,91.4762215 L184.370033,86.6397394 C184.370033,86.6397394 181.868404,78.134202 175.030619,76.8833876 L170.694463,84.0547231 C170.694463,84.0547231 176.781759,85.3055375 179.700326,91.4762215 Z" id="Path"></path>
                    <path d="M169.943974,228.315309 L174.113355,233.652117 C174.113355,233.652117 182.869055,232.317915 185.037134,225.730293 L178.532899,220.476873 C178.532899,220.393485 176.448208,226.314007 169.943974,228.315309 Z" id="Path"></path>
                    <path d="M540.601954,519.087948 L536.015635,524.091205 C536.015635,524.091205 538.684039,532.513355 545.605212,533.680782 L549.774593,526.426059 C549.774593,526.342671 543.687296,525.175244 540.601954,519.087948 Z" id="Path"></path>
                    <path d="M715.465798,279.265147 L720.135505,274.428664 C720.135505,274.428664 717.633876,265.923127 710.796091,264.672313 L706.459935,271.843648 C706.459935,271.760261 712.547231,273.011075 715.465798,279.265147 Z" id="Path"></path>
                    <path d="M705.709446,416.104235 L709.878827,421.441042 C709.878827,421.441042 718.634528,420.10684 720.802606,413.519218 L714.298371,408.265798 C714.381759,408.18241 712.297068,414.019544 705.709446,416.104235 Z" id="Path"></path>
                    <path d="M94.3114007,595.887948 L89.7250814,600.891205 C89.7250814,600.891205 92.3934853,609.313355 99.314658,610.480782 L103.484039,603.226059 C103.484039,603.142671 97.3967427,602.058632 94.3114007,595.887948 Z" id="Path"></path>
                    <path d="M269.091857,356.065147 L273.761564,351.228664 C273.761564,351.228664 271.259935,342.723127 264.42215,341.472313 L260.169381,348.560261 C260.169381,348.560261 266.256678,349.894463 269.091857,356.065147 Z" id="Path"></path>
                    <path d="M259.418893,492.904235 L263.588274,498.241042 C263.588274,498.241042 272.343974,496.90684 274.512052,490.319218 L268.007818,485.065798 C268.007818,484.98241 265.923127,490.819544 259.418893,492.904235 Z" id="Path"></path>
                </g>
                <g id="orange" transform="translate(4.169381, 22.514658)" fill="#DCA451">
                    <path d="M866.314007,167.108795 L860.977199,163.022801 C860.977199,163.022801 852.888599,166.441694 852.304886,173.362866 L859.89316,176.865147 C859.89316,176.865147 860.476873,170.694463 866.314007,167.108795 Z" id="Path"></path>
                    <path d="M557.779805,229.315961 L563.033225,233.56873 C563.033225,233.56873 571.205212,230.316612 571.9557,223.39544 L564.450814,219.726384 C564.450814,219.726384 563.700326,225.897068 557.779805,229.315961 Z" id="Path"></path>
                    <path d="M451.293811,0.250162866 L446.373941,4.91986971 C446.373941,4.91986971 448.458632,13.5087948 455.296417,15.0931596 L459.966124,8.08859935 C459.966124,8.08859935 453.878827,6.50423453 451.293811,0.250162866 Z" id="Path"></path>
                    <path d="M420.023453,243.908795 L414.686645,239.822801 C414.686645,239.822801 406.598046,243.241694 406.014332,250.162866 L413.602606,253.665147 C413.602606,253.748534 414.186319,247.494463 420.023453,243.908795 Z" id="Path"></path>
                    <path d="M948.700977,79.8019544 L953.954397,84.0547231 C953.954397,84.0547231 962.126384,80.8026059 962.876873,73.8814332 L955.371987,70.2123779 C955.288599,70.1289902 954.538111,76.2996743 948.700977,79.8019544 Z" id="Path"></path>
                    <path d="M4.91986971,77.0501629 L0.0833876221,81.7198697 C0.0833876221,81.7198697 2.16807818,90.3087948 9.00586319,91.8931596 L13.67557,84.8885993 C13.5921824,84.8885993 7.58827362,83.3876221 4.91986971,77.0501629 Z" id="Path"></path>
                    <path d="M955.788925,431.69772 L950.452117,427.611726 C950.452117,427.611726 942.363518,431.030619 941.779805,437.951792 L949.368078,441.454072 C949.368078,441.454072 949.951792,435.283388 955.788925,431.69772 Z" id="Path"></path>
                    <path d="M647.254723,493.904886 L652.508143,498.157655 C652.508143,498.157655 660.68013,494.905537 661.430619,487.984365 L653.925733,484.315309 C653.925733,484.231922 653.175244,490.402606 647.254723,493.904886 Z" id="Path"></path>
                    <path d="M540.685342,264.839088 L535.765472,269.508795 C535.765472,269.508795 537.850163,278.09772 544.687948,279.682085 L549.357655,272.677524 C549.357655,272.677524 543.353746,271.09316 540.685342,264.839088 Z" id="Path"></path>
                    <path d="M509.414984,508.49772 L504.078176,504.411726 C504.078176,504.411726 495.989577,507.830619 495.405863,514.751792 L502.994137,518.254072 C503.077524,518.254072 503.661238,512.083388 509.414984,508.49772 Z" id="Path"></path>
                    <path d="M200.964169,570.704886 L206.21759,574.957655 C206.21759,574.957655 214.389577,571.705537 215.140065,564.784365 L207.635179,561.115309 C207.551792,561.115309 206.884691,567.285993 200.964169,570.704886 Z" id="Path"></path>
                    <path d="M94.3947883,341.639088 L89.4749186,346.308795 C89.4749186,346.308795 91.5596091,354.89772 98.3973941,356.482085 L103.067101,349.477524 C103.067101,349.477524 97.0631922,347.976547 94.3947883,341.639088 Z" id="Path"></path>
                </g>
                <g id="green" transform="translate(0.000000, 61.706840)" fill="#5C7F54">
                    <path d="M697.620847,145.844951 L693.034528,150.848208 C693.034528,150.848208 695.702932,159.270358 702.624104,160.437785 L706.793485,153.183062 C706.793485,153.099674 700.622801,152.015635 697.620847,145.844951 Z" id="Path"></path>
                    <path d="M692.534202,96.1459283 L697.203909,91.3094463 C697.203909,91.3094463 694.70228,82.8039088 687.864495,81.5530945 L683.528339,88.72443 C683.528339,88.72443 689.615635,89.9752443 692.534202,96.1459283 Z" id="Path"></path>
                    <path d="M446.290554,134.587622 L450.459935,139.92443 C450.459935,139.92443 459.215635,138.590228 461.383713,132.002606 L454.879479,126.749186 C454.879479,126.665798 452.794788,132.586319 446.290554,134.587622 Z" id="Path"></path>
                    <path d="M251.246906,222.728339 L246.660586,227.731596 C246.660586,227.731596 249.32899,236.153746 256.250163,237.321173 L260.419544,230.06645 C260.419544,229.983062 254.332248,228.815635 251.246906,222.728339 Z" id="Path"></path>
                    <path d="M285.685993,15.009772 L290.3557,10.1732899 C290.3557,10.1732899 287.854072,1.66775244 281.016287,0.416938111 L276.68013,7.58827362 C276.68013,7.58827362 282.767427,8.83908795 285.685993,15.009772 Z" id="Path"></path>
                    <path d="M0,211.47101 L4.16938111,216.807818 C4.16938111,216.807818 12.9250814,215.473616 15.0931596,208.885993 L8.58892508,203.632573 C8.58892508,203.549186 6.50423453,209.386319 0,211.47101 Z" id="Path"></path>
                    <path d="M787.012378,410.433876 L782.426059,415.437134 C782.426059,415.437134 785.094463,423.859283 792.015635,425.02671 L796.185016,417.771987 C796.185016,417.688599 790.09772,416.521173 787.012378,410.433876 Z" id="Path"></path>
                    <path d="M782.009121,360.734853 L786.678827,355.898371 C786.678827,355.898371 784.177199,347.392834 777.339414,346.14202 L773.003257,353.313355 C773.003257,353.229967 779.090554,354.564169 782.009121,360.734853 Z" id="Path"></path>
                    <path d="M535.765472,399.176547 L539.934853,404.513355 C539.934853,404.513355 548.690554,403.179153 550.858632,396.591531 L544.354397,391.338111 C544.354397,391.254723 542.269707,397.091857 535.765472,399.176547 Z" id="Path"></path>
                    <path d="M340.721824,487.317264 L336.135505,492.320521 C336.135505,492.320521 338.803909,500.742671 345.725081,501.910098 L349.894463,494.655375 C349.894463,494.571987 343.807166,493.40456 340.721824,487.317264 Z" id="Path"></path>
                    <path d="M375.077524,279.598697 L379.747231,274.762215 C379.747231,274.762215 377.245603,266.256678 370.407818,265.005863 L366.071661,272.177199 C366.071661,272.177199 372.158958,273.428013 375.077524,279.598697 Z" id="Path"></path>
                    <path d="M114.407818,195.377199 L118.577199,200.714007 C118.577199,200.714007 127.332899,199.379805 129.500977,192.792182 L122.996743,187.538762 C122.996743,187.455375 120.99544,193.292508 114.407818,195.377199 Z" id="Path"></path>
                </g>
                <g id="purple" transform="translate(32.521173, 0.000000)" fill="#A080AF">
                    <path d="M737.229967,279.765472 L732.643648,284.76873 C732.643648,284.76873 735.312052,293.190879 742.233225,294.358306 L746.402606,287.103583 C746.402606,287.020195 740.231922,285.852769 737.229967,279.765472 Z" id="Path"></path>
                    <path d="M845.884039,356.065147 L850.303583,361.151792 C850.303583,361.151792 858.975896,359.400651 860.893811,352.729642 L854.139414,347.726384 C854.139414,347.809772 852.304886,353.730293 845.884039,356.065147 Z" id="Path"></path>
                    <path d="M446.373941,295.442345 L450.793485,300.52899 C450.793485,300.52899 459.465798,298.77785 461.383713,292.10684 L454.629316,287.103583 C454.545928,287.103583 452.794788,293.107492 446.373941,295.442345 Z" id="Path"></path>
                    <path d="M589.633876,84.0547231 L594.303583,79.218241 C594.303583,79.218241 591.801954,70.7127036 584.964169,69.4618893 L580.628013,76.6332248 C580.628013,76.6332248 586.715309,77.8840391 589.633876,84.0547231 Z" id="Path"></path>
                    <path d="M482.814332,5.2534202 L478.478176,0 C478.478176,0 469.805863,1.5009772 467.721173,8.17198697 L474.308795,13.3420195 C474.308795,13.3420195 476.310098,7.42149837 482.814332,5.2534202 Z" id="Path"></path>
                    <path d="M880.740065,75.1322476 L876.403909,69.8788274 C876.403909,69.8788274 867.731596,71.3798046 865.646906,78.0508143 L872.234528,83.2208469 C872.317915,83.2208469 874.319218,77.3837134 880.740065,75.1322476 Z" id="Path"></path>
                    <path d="M496.239739,136.255375 L500.409121,141.592182 C500.409121,141.592182 509.164821,140.25798 511.332899,133.670358 L504.828664,128.416938 C504.828664,128.33355 502.827362,134.170684 496.239739,136.255375 Z" id="Path"></path>
                    <path d="M572.289251,173.196091 L578.042997,169.610423 C578.042997,169.610423 577.709446,160.771336 571.371987,157.852769 L565.368078,163.77329 C565.368078,163.77329 570.955049,166.525081 572.289251,173.196091 Z" id="Path"></path>
                    <path d="M651.674267,347.809772 L657.428013,344.224104 C657.428013,344.224104 657.094463,335.385016 650.757003,332.46645 L644.753094,338.386971 C644.753094,338.303583 650.340065,341.055375 651.674267,347.809772 Z" id="Path"></path>
                    <path d="M290.856026,356.565472 L286.269707,361.56873 C286.269707,361.56873 288.938111,369.990879 295.859283,371.158306 L300.028664,363.903583 C300.028664,363.820195 293.941368,362.652769 290.856026,356.565472 Z" id="Path"></path>
                    <path d="M399.510098,432.865147 L403.929642,437.951792 C403.929642,437.951792 412.601954,436.200651 414.51987,429.529642 L407.765472,424.526384 C407.765472,424.609772 405.930945,430.530293 399.510098,432.865147 Z" id="Path"></path>
                    <path d="M0,372.242345 L4.41954397,377.32899 C4.41954397,377.32899 13.0918567,375.57785 15.009772,368.90684 L8.25537459,363.903583 C8.25537459,363.986971 6.42084691,369.907492 0,372.242345 Z" id="Path"></path>
                    <path d="M143.259935,160.938111 L147.929642,156.101629 C147.929642,156.101629 145.428013,147.596091 138.590228,146.345277 L134.254072,153.433225 C134.254072,153.433225 140.341368,154.684039 143.259935,160.938111 Z" id="Path"></path>
                    <path d="M36.4403909,82.0534202 L32.1042345,76.8 C32.1042345,76.8 23.4319218,78.3009772 21.3472313,84.971987 L27.9348534,90.1420195 C28.018241,90.1420195 30.019544,84.2214984 36.4403909,82.0534202 Z" id="Path"></path>
                    <path d="M434.449511,152.015635 L430.113355,146.762215 C430.113355,146.762215 421.441042,148.263192 419.356352,154.934202 L425.943974,160.104235 C426.027362,160.104235 427.945277,154.183713 434.449511,152.015635 Z" id="Path"></path>
                    <path d="M49.9491857,213.138762 L54.1185668,218.47557 C54.1185668,218.47557 62.8742671,217.141368 65.0423453,210.553746 L58.5381107,205.300326 C58.5381107,205.13355 56.4534202,211.054072 49.9491857,213.138762 Z" id="Path"></path>
                    <path d="M211.637785,207.051466 L217.391531,203.465798 C217.391531,203.465798 217.05798,194.62671 210.720521,191.708143 L204.716612,197.628664 C204.716612,197.628664 210.303583,200.380456 211.637785,207.051466 Z" id="Path"></path>
                    <path d="M205.300326,424.609772 L211.054072,421.024104 C211.054072,421.024104 210.720521,412.185016 204.383062,409.26645 L198.379153,415.186971 C198.379153,415.186971 203.966124,417.855375 205.300326,424.609772 Z" id="Path"></path>
                    <path d="M826.704886,544.27101 L822.118567,549.274267 C822.118567,549.274267 824.786971,557.696417 831.708143,558.863844 L835.877524,551.609121 C835.877524,551.525733 829.70684,550.441694 826.704886,544.27101 Z" id="Path"></path>
                    <path d="M935.27557,620.654072 L939.695114,625.740717 C939.695114,625.740717 948.367427,623.989577 950.285342,617.318567 L943.530945,612.315309 C943.530945,612.315309 941.696417,618.319218 935.27557,620.654072 Z" id="Path"></path>
                    <path d="M535.765472,560.03127 L540.185016,565.117915 C540.185016,565.117915 548.857329,563.366775 550.775244,556.695765 L544.020847,551.692508 C544.020847,551.692508 542.186319,557.696417 535.765472,560.03127 Z" id="Path"></path>
                    <path d="M679.025407,348.643648 L683.695114,343.807166 C683.695114,343.807166 681.193485,335.301629 674.3557,334.050814 L670.019544,341.22215 C670.102932,341.138762 676.190228,342.472964 679.025407,348.643648 Z" id="Path"></path>
                    <path d="M572.205863,269.758958 L567.869707,264.505537 C567.869707,264.505537 559.197394,266.006515 557.112704,272.677524 L563.700326,277.847557 C563.783713,277.847557 565.785016,272.010423 572.205863,269.758958 Z" id="Path"></path>
                    <path d="M970.214984,339.721173 L965.878827,334.467752 C965.878827,334.467752 957.206515,335.96873 955.121824,342.639739 L961.709446,347.809772 C961.792834,347.809772 963.794137,341.889251 970.214984,339.721173 Z" id="Path"></path>
                    <path d="M585.714658,400.8443 L589.884039,406.181107 C589.884039,406.181107 598.639739,404.846906 600.807818,398.259283 L594.303583,393.005863 C594.303583,392.922476 592.218893,398.759609 585.714658,400.8443 Z" id="Path"></path>
                    <path d="M661.680782,437.785016 L667.434528,434.199349 C667.434528,434.199349 667.100977,425.360261 660.763518,422.441694 L654.759609,428.362215 C654.842997,428.362215 660.429967,431.030619 661.680782,437.785016 Z" id="Path"></path>
                    <path d="M741.065798,612.315309 L746.819544,608.729642 C746.819544,608.729642 746.485993,599.890554 740.148534,596.971987 L734.144625,602.892508 C734.144625,602.892508 739.731596,605.6443 741.065798,612.315309 Z" id="Path"></path>
                    <path d="M380.330945,621.154397 L375.744625,626.157655 C375.744625,626.157655 378.413029,634.579805 385.334202,635.747231 L389.503583,628.492508 C389.503583,628.409121 383.416287,627.241694 380.330945,621.154397 Z" id="Path"></path>
                    <path d="M488.985016,697.454072 L493.40456,702.540717 C493.40456,702.540717 502.076873,700.789577 503.994788,694.118567 L497.240391,689.115309 C497.240391,689.198697 495.405863,695.119218 488.985016,697.454072 Z" id="Path"></path>
                    <path d="M89.4749186,636.83127 L93.8944625,641.917915 C93.8944625,641.917915 102.566775,640.166775 104.484691,633.495765 L97.7302932,628.492508 C97.7302932,628.575896 95.8957655,634.496417 89.4749186,636.83127 Z" id="Path"></path>
                    <path d="M232.734853,425.443648 L237.40456,420.607166 C237.40456,420.607166 234.902932,412.101629 228.065147,410.850814 L223.72899,418.02215 C223.72899,418.02215 229.816287,419.272964 232.734853,425.443648 Z" id="Path"></path>
                    <path d="M990.895114,186.955049 L986.558958,181.701629 C986.558958,181.701629 977.886645,183.202606 975.801954,189.873616 L982.389577,195.043648 C982.472964,195.043648 984.390879,189.123127 990.895114,186.955049 Z" id="Path"></path>
                    <path d="M139.424104,477.6443 L143.593485,482.981107 C143.593485,482.981107 152.349186,481.646906 154.517264,475.059283 L148.013029,469.805863 C148.013029,469.722476 145.928339,475.642997 139.424104,477.6443 Z" id="Path"></path>
                    <path d="M301.112704,471.640391 L306.86645,468.054723 C306.86645,468.054723 306.532899,459.215635 300.19544,456.297068 L294.191531,462.21759 C294.191531,462.21759 299.778502,464.885993 301.112704,471.640391 Z" id="Path"></path>
                    <path d="M294.775244,689.198697 L300.52899,685.613029 C300.52899,685.613029 300.19544,676.773941 293.85798,673.855375 L287.854072,679.775896 C287.854072,679.775896 293.441042,682.4443 294.775244,689.198697 Z" id="Path"></path>
                </g>
            </g>
        </g>
    </g>
</svg>